<!-- Generated by IcoMoon.io -->
<svg version="1.1" xmlns="http://www.w3.org/2000/svg" width="42" height="32" viewBox="0 0 42 32">
<title>arrow-left</title>
<path fill="#fff" d="M0.586 14.586c-0.362 0.362-0.586 0.862-0.586 1.414s0.224 1.052 0.586 1.414l12.728 12.728c0.359 0.347 0.849 0.561 1.389 0.561 1.105 0 2-0.895 2-2 0-0.54-0.214-1.030-0.562-1.39l0.001 0.001-11.314-11.314 11.314-11.314c0.335-0.357 0.541-0.838 0.541-1.368 0-1.105-0.895-2-2-2-0.53 0-1.012 0.206-1.37 0.543l0.001-0.001-12.728 12.726zM42 14h-40v4h40v-4z"></path>
</svg>
