<!-- Generated by IcoMoon.io -->
<svg version="1.1" xmlns="http://www.w3.org/2000/svg" width="32" height="32" viewBox="0 0 32 32">
<title>covering</title>
<path fill="#fff" d="M31.826 30.992l-4.224-20.416c-0.070-0.322-0.352-0.56-0.69-0.56-0 0-0 0-0 0h-21.824c-0.334 0-0.623 0.236-0.69 0.56l-4.224 20.416c-0.042 0.207 0.011 0.422 0.145 0.588s0.334 0.26 0.546 0.26h30.272c0.389-0.001 0.705-0.316 0.705-0.706 0-0.050-0.005-0.1-0.015-0.147l0.001 0.005zM28.158 20.224h-11.454v-8.8h9.634l1.82 8.8zM5.662 11.424h9.634v8.8h-11.454l1.82-8.8zM3.564 21.565c0.088 0.042 0.187 0.067 0.292 0.067h11.44v8.8h-13.566l1.834-8.867zM16.704 30.432v-8.8h11.44c0.106 0 0.204-0.025 0.292-0.067l1.834 8.867h-13.566zM18.464 4.032c0.972 0 1.76 0.788 1.76 1.76 0 0.387 0.317 0.704 0.704 0.704s0.704-0.317 0.704-0.704c0-0.972 0.788-1.76 1.76-1.76 0.387 0 0.704-0.317 0.704-0.704s-0.317-0.704-0.704-0.704c-0.972-0-1.76-0.788-1.76-1.76v-0c0-0.387-0.317-0.704-0.704-0.704s-0.704 0.317-0.704 0.704c0 0.972-0.788 1.76-1.76 1.76-0.387 0-0.704 0.317-0.704 0.704s0.317 0.704 0.704 0.704zM20.928 2.849c0.141 0.176 0.303 0.334 0.479 0.479-0.176 0.141-0.334 0.303-0.479 0.479-0.144-0.178-0.301-0.335-0.473-0.474l-0.006-0.005c0.176-0.141 0.338-0.303 0.479-0.479zM8.608 5.44c0.972 0 1.76 0.788 1.76 1.76 0 0.387 0.317 0.704 0.704 0.704s0.704-0.317 0.704-0.704c0-0.972 0.788-1.76 1.76-1.76 0.387 0 0.704-0.317 0.704-0.704s-0.317-0.704-0.704-0.704c-0.972-0-1.76-0.788-1.76-1.76v-0c0-0.387-0.317-0.704-0.704-0.704s-0.704 0.317-0.704 0.704c0 0.972-0.788 1.76-1.76 1.76-0.387 0-0.704 0.317-0.704 0.704s0.317 0.704 0.704 0.704zM11.072 4.257c0.141 0.176 0.303 0.334 0.479 0.479-0.176 0.141-0.334 0.303-0.479 0.479-0.144-0.178-0.301-0.335-0.473-0.474l-0.006-0.005c0.176-0.141 0.338-0.303 0.479-0.479z"></path>
</svg>
