<!-- Generated by IcoMoon.io -->
<svg version="1.1" xmlns="http://www.w3.org/2000/svg" width="21" height="32" viewBox="0 0 21 32">
<title>lighting</title>
<path fill="#fff" d="M20.621 21.814c0.128 0 0.25-0.051 0.34-0.142s0.141-0.215 0.141-0.344c0-6.317-3.934-10.455-10.068-10.659v-10.182c0-0.129-0.051-0.253-0.141-0.344-0.087-0.088-0.207-0.142-0.34-0.142s-0.253 0.054-0.34 0.142l-0 0c-0.087 0.088-0.141 0.21-0.141 0.344 0 0 0 0 0 0.001v-0 10.182c-6.137 0.204-10.072 4.342-10.072 10.659 0 0.129 0.051 0.253 0.141 0.344s0.212 0.142 0.34 0.142h6.269c0.147 0.958 0.614 1.787 1.287 2.392l0.004 0.003c0.665 0.597 1.541 0.972 2.503 1l0.006 0c0.969-0.028 1.845-0.402 2.514-1.003l-0.004 0.003c0.677-0.608 1.145-1.437 1.289-2.373l0.003-0.022h6.269zM10.55 11.632c4.527 0 9.36 2.432 9.581 9.21h-19.17c0.228-6.777 5.060-9.21 9.588-9.21zM10.55 24.237c-0.702-0.029-1.337-0.296-1.83-0.722l0.004 0.003c-0.5-0.432-0.857-1.018-0.996-1.685l-0.003-0.020h5.653c-0.142 0.687-0.499 1.274-0.996 1.702l-0.004 0.003c-0.49 0.422-1.125 0.689-1.822 0.716l-0.006 0zM21.144 27.732l-2.985-2.302c-0.080-0.062-0.182-0.1-0.292-0.1-0.156 0-0.295 0.075-0.382 0.191l-0.001 0.001c-0.061 0.081-0.098 0.184-0.098 0.295 0 0.157 0.074 0.297 0.189 0.387l0.001 0.001 2.985 2.302c0.080 0.062 0.182 0.1 0.292 0.1 0.156 0 0.295-0.075 0.382-0.191l0.001-0.001c0.062-0.081 0.099-0.184 0.099-0.295 0-0.090-0.024-0.175-0.067-0.248l0.001 0.002c-0.033-0.056-0.074-0.103-0.123-0.142l-0.001-0.001zM3.723 25.391l-2.902 2.406c-0.118 0.073-0.201 0.193-0.224 0.333l-0 0.003c-0.004 0.024-0.006 0.051-0.006 0.079 0 0.119 0.042 0.228 0.112 0.313l-0.001-0.001c0.087 0.105 0.216 0.172 0.361 0.175h0.001c0.002 0 0.005 0 0.008 0 0.143 0 0.271-0.063 0.358-0.162l0-0.001 2.905-2.403c0.101-0.079 0.169-0.195 0.184-0.328l0-0.002c0.002-0.016 0.003-0.035 0.003-0.055 0-0.117-0.041-0.225-0.109-0.309l0.001 0.001c-0.080-0.098-0.197-0.164-0.33-0.176l-0.002-0c-0.012-0.001-0.027-0.002-0.041-0.002-0.121 0-0.232 0.045-0.316 0.12l0.001-0-0.003 0.009zM10.691 27.632c-0.128 0-0.25 0.051-0.34 0.143-0.087 0.088-0.141 0.21-0.141 0.344 0 0 0 0 0 0v0 3.395c0 0.129 0.051 0.253 0.141 0.344 0.087 0.088 0.207 0.142 0.34 0.142s0.253-0.054 0.34-0.142l0-0c0.090-0.091 0.141-0.215 0.141-0.344v-3.395c0-0.129-0.051-0.253-0.141-0.344-0.087-0.088-0.207-0.143-0.34-0.143h-0z"></path>
</svg>
