<!-- Generated by IcoMoon.io -->
<svg version="1.1" xmlns="http://www.w3.org/2000/svg" width="73" height="32" viewBox="0 0 73 32">
<title>logo</title>
<path fill="#3d4a39" d="M63.596 1.167c2.449 0 4.548 0.875 6.3 2.618 1.753 1.746 2.628 3.841 2.628 6.292 0 2.455-0.874 4.547-2.628 6.278-0.227 0.225-0.465 0.439-0.714 0.642l-0.018 0.014c-4.125-2.131-8.482-3.15-8.572-6.931 0.759 1.518 1.196 2.354 2.829 3.171 0.131-0.195 0.269-0.429 0.408-0.614 0.701-0.931 0.848-0.572 2.421-0.916 1.321-0.29 1.622-0.876 1.716-2.351-1.201-1.026-0.855-0.318-1.596-1.989-0.455-1.027-0.838-1.111-2.045-1.369l0.124-2.029c-2.711 0.64-4.603 2.919-5.553 5.441-1.185 3.15-0.823 5.276-0.228 8.061-0.515-0.349-0.965-0.721-1.377-1.131l0.001 0.001c-1.742-1.74-2.616-3.831-2.616-6.278 0-2.444 0.874-4.538 2.616-6.292 1.753-1.743 3.852-2.618 6.304-2.618h0.001z"></path>
<path fill="#3d4a39" d="M65.561 5.498l0.155-0.372c0.655 0.271 1.252 0.677 1.794 1.217 0.547 0.544 0.957 1.143 1.231 1.795 0.26 0.612 0.41 1.323 0.41 2.070 0 0.017-0 0.034-0 0.051l0-0.003c0 0.765-0.137 1.475-0.411 2.128-0.302 0.696-0.717 1.288-1.23 1.781l-0.002 0.002c-0.501 0.503-1.097 0.91-1.759 1.193l-0.036 0.014c-0.655 0.271-1.36 0.404-2.116 0.404-0.768 0-1.48-0.134-2.137-0.403-0.698-0.295-1.293-0.703-1.791-1.209l-0.001-0.001c-0.509-0.498-0.922-1.092-1.208-1.753l-0.014-0.036c-0.259-0.613-0.409-1.325-0.409-2.072 0-0.017 0-0.034 0-0.051l-0 0.003c0-0.754 0.137-1.458 0.409-2.112 0.272-0.652 0.679-1.253 1.22-1.8 0.496-0.51 1.089-0.921 1.751-1.205l0.035-0.013 0.155 0.372c-0.645 0.275-1.194 0.656-1.652 1.126l-0.001 0.001c-0.505 0.511-0.883 1.068-1.135 1.673-0.239 0.566-0.378 1.224-0.378 1.915 0 0.015 0 0.030 0 0.045l-0-0.002c0 0.708 0.126 1.363 0.378 1.966 0.251 0.603 0.629 1.156 1.133 1.659 0.461 0.47 1.012 0.849 1.625 1.11l0.033 0.012c0.606 0.248 1.266 0.372 1.983 0.372 0.705 0 1.36-0.124 1.964-0.372 0.647-0.276 1.2-0.655 1.664-1.122l0-0h0.001c0.477-0.458 0.862-1.006 1.129-1.618l0.013-0.032c0.252-0.604 0.379-1.261 0.379-1.974 0-0.706-0.126-1.361-0.378-1.964-0.254-0.604-0.634-1.159-1.144-1.665-0.505-0.503-1.059-0.88-1.663-1.129h0.001zM63.597 1.167c1.25 0 2.412 0.224 3.488 0.671s2.060 1.116 2.955 2.006c0.895 0.892 1.567 1.874 2.015 2.947 0.449 1.074 0.673 2.236 0.673 3.488 0 1.253-0.224 2.415-0.672 3.487-0.448 1.071-1.12 2.048-2.015 2.933-0.892 0.88-1.875 1.541-2.95 1.982s-2.24 0.662-3.494 0.662c-1.259-0.004-2.427-0.226-3.503-0.668s-2.057-1.099-2.944-1.976c-0.89-0.889-1.559-1.868-2.005-2.938s-0.671-2.232-0.671-3.481c0-1.248 0.225-2.408 0.671-3.482 0.447-1.072 1.115-2.056 2.004-2.952h0.001c0.895-0.89 1.88-1.559 2.955-2.007s2.24-0.671 3.492-0.671v-0.001zM66.93 2.209c-1.025-0.426-2.135-0.64-3.334-0.64-1.2 0-2.311 0.213-3.337 0.64s-1.967 1.066-2.825 1.919c-0.851 0.858-1.491 1.799-1.917 2.823s-0.639 2.132-0.639 3.328c0 1.197 0.214 2.306 0.639 3.327 0.426 1.022 1.065 1.958 1.917 2.808 0.85 0.839 1.788 1.469 2.813 1.889 1.027 0.421 2.143 0.633 3.348 0.636v-0.001c1.202 0 2.316-0.211 3.34-0.63 1.025-0.42 1.964-1.052 2.817-1.895 0.858-0.847 1.5-1.781 1.927-2.803 0.427-1.020 0.64-2.131 0.64-3.332 0-1.199-0.213-2.311-0.64-3.333s-1.069-1.962-1.927-2.817v-0.001c-0.857-0.852-1.799-1.492-2.824-1.919v0.001z"></path>
<path fill="#ddd5c1" d="M61.591 5.455l0.018 0.044c-0.086 0.034-0.131 0.054-0.176 0.075l0.039-0.016c-1.158 1.026-2.024 2.406-2.575 3.866-0.138 0.345-0.285 0.794-0.409 1.251l-0.022 0.094c0.047 0.514 0.165 0.999 0.354 1.453 0.252 0.603 0.63 1.156 1.135 1.659 0.461 0.47 1.012 0.849 1.625 1.11l0.033 0.012c0.605 0.248 1.265 0.372 1.983 0.372 0.011 0 0.023 0 0.036 0 0.557 0 1.094-0.087 1.598-0.249l-0.037 0.010c-2.551-1.222-4.538-2.516-4.599-5.057 0.759 1.518 1.196 2.353 2.83 3.171 0.13-0.196 0.269-0.431 0.407-0.614 0.702-0.931 0.849-0.572 2.422-0.916 1.321-0.29 1.622-0.876 1.716-2.351-1.201-1.026-0.855-0.318-1.596-1.989-0.455-1.027-0.838-1.111-2.045-1.369l0.123-2.029c-1.088 0.257-2.044 0.778-2.86 1.472z"></path>
<path fill="#ae7b3c" d="M65.705 15.378c-0.61 0.254-1.319 0.401-2.062 0.401-0.016 0-0.033-0-0.049-0l0.002 0c-0.767 0-1.48-0.135-2.137-0.403-0.698-0.295-1.293-0.704-1.79-1.209l-0.001-0.001-0.001 0.001c-0.509-0.498-0.922-1.092-1.208-1.753l-0.014-0.036c-0.078-0.188-0.145-0.379-0.2-0.575-0.318 1.961-0.015 3.628 0.412 5.633 0.504 0.351 1.033 0.64 1.589 0.868 1.027 0.422 2.144 0.633 3.349 0.637v-0.001c1.202 0 2.316-0.21 3.34-0.63 0.837-0.35 1.558-0.794 2.198-1.332l-0.013 0.011c-1.155-0.594-2.327-1.103-3.417-1.61z"></path>
<path fill="#3d4a39" d="M44.918 1.2c2.441 0 4.544 0.863 6.311 2.595l-2.519 2.511c-1.068-1.049-2.326-1.576-3.769-1.576-1.478 0-2.735 0.527-3.774 1.576-1.046 1.041-1.571 2.298-1.571 3.771 0 1.468 0.525 2.725 1.571 3.767 1.031 1.041 2.289 1.564 3.774 1.564 1.091 0 2.080-0.303 2.974-0.912 0.797-0.536 1.427-1.264 1.832-2.119l0.014-0.032h-5.017v-3.356h9.028c0.231 2.988-0.621 5.444-2.564 7.364-1.753 1.732-3.852 2.596-6.3 2.596-2.471 0-4.569-0.864-6.293-2.596-1.742-1.724-2.616-3.815-2.616-6.277 0-2.444 0.874-4.539 2.616-6.292 1.731-1.743 3.83-2.618 6.293-2.618l0.012 0.033h-0.001z"></path>
<path fill="#3d4a39" d="M45.063 0.999c1.191 0.017 2.305 0.237 3.34 0.663 1.076 0.442 2.065 1.105 2.968 1.99l0.145 0.142-2.805 2.795-0.143-0.14c-0.516-0.506-1.076-0.887-1.681-1.14-0.564-0.239-1.219-0.378-1.907-0.378-0.014 0-0.028 0-0.043 0h0.002c-0.711 0-1.369 0.126-1.972 0.378-0.647 0.279-1.197 0.663-1.657 1.136l-0.001 0.001v0.001c-0.505 0.503-0.883 1.056-1.135 1.66-0.238 0.567-0.377 1.227-0.377 1.919 0 0.018 0 0.035 0 0.052l-0-0.003c0 0.708 0.126 1.363 0.377 1.966s0.63 1.156 1.134 1.658v0.002c0.458 0.472 1.007 0.853 1.618 1.116l0.033 0.012c0.604 0.249 1.263 0.375 1.979 0.375 0.527 0 1.027-0.073 1.502-0.218 0.517-0.163 0.968-0.387 1.374-0.67l-0.017 0.011h0.001c0.394-0.266 0.734-0.569 1.030-0.911l0.005-0.006c0.228-0.265 0.426-0.553 0.596-0.865h-4.891v-3.759h9.418l0.015 0.186c0.117 1.521-0.041 2.909-0.479 4.163-0.438 1.257-1.152 2.377-2.145 3.359-0.895 0.884-1.88 1.548-2.954 1.99-1.076 0.444-2.238 0.665-3.488 0.665-1.262 0-2.431-0.221-3.505-0.665-1.073-0.444-2.051-1.106-2.931-1.991-0.889-0.881-1.558-1.857-2.004-2.927s-0.671-2.235-0.671-3.492c0-1.248 0.224-2.409 0.671-3.482 0.447-1.072 1.115-2.056 2.005-2.953 0.884-0.89 1.864-1.56 2.938-2.007s2.24-0.671 3.498-0.671h0.145l0.011 0.035zM48.249 2.034c-1.026-0.422-2.137-0.633-3.331-0.633h-0.145l-0.011-0.033c-1.149 0.017-2.215 0.229-3.198 0.638-1.025 0.427-1.961 1.067-2.807 1.919-0.852 0.858-1.492 1.799-1.919 2.823-0.425 1.023-0.639 2.132-0.639 3.327 0 1.205 0.213 2.318 0.639 3.338s1.065 1.953 1.917 2.797c0.843 0.847 1.776 1.481 2.799 1.903 1.024 0.422 2.142 0.633 3.352 0.633 1.199 0 2.31-0.21 3.335-0.633s1.967-1.056 2.824-1.903c0.949-0.939 1.632-2.007 2.049-3.204 0.4-1.149 0.556-2.422 0.469-3.815h-8.637v2.952h5.132l-0.135 0.287c-0.434 0.921-1.088 1.677-1.896 2.22l-0.019 0.012c-0.421 0.293-0.908 0.534-1.428 0.699l-0.038 0.011c-0.478 0.151-1.028 0.238-1.598 0.238-0.008 0-0.015-0-0.023-0h0.001c-0.768 0-1.479-0.136-2.133-0.407-0.696-0.297-1.288-0.708-1.782-1.216l-0.001-0.001c-0.509-0.498-0.922-1.092-1.208-1.753l-0.014-0.036c-0.259-0.613-0.409-1.325-0.409-2.072 0-0.017 0-0.034 0-0.051l-0 0.003c0-0.762 0.137-1.469 0.409-2.124s0.68-1.251 1.222-1.79c0.538-0.543 1.135-0.953 1.787-1.225 0.655-0.273 1.364-0.41 2.129-0.41 0.011-0 0.025-0 0.039-0 0.745 0 1.455 0.151 2.101 0.424l-0.035-0.013c0.642 0.277 1.192 0.642 1.665 1.088l-0.003-0.003 2.234-2.226c-0.825-0.777-1.721-1.365-2.691-1.764zM30.929 10.989v-9.724h3.542v17.913l-10.598-10.059v9.722h-3.532v-17.903l10.588 10.049z"></path>
<path fill="#3d4a39" d="M30.524 10.049v-9.185h4.353v19.257l-10.6-10.060v9.185h-4.342v-19.246l10.588 10.049zM31.334 1.671v10.258l-10.588-10.048v16.558h2.722v-10.259l10.598 10.060v-16.57h-2.732zM14.628 1.308h3.532v17.513h-3.532v-17.513z"></path>
<path fill="#3d4a39" d="M14.628 1.105h3.735v17.916h-3.937v-17.916h0.203zM17.957 1.509h-3.127v17.109h3.127v-17.109zM6.276 9.639c0.64 0 1.187-0.241 1.645-0.727 0.451-0.485 0.678-1.064 0.678-1.738 0-0.639-0.234-1.198-0.7-1.684-0.48-0.463-1.205-0.693-2.18-0.693h-1.984v4.831h1.362v0.011h1.18zM0.204 1.308h5.735c1.86 0 3.394 0.593 4.6 1.783 0.591 0.585 1.008 1.138 1.254 1.661 0.298 0.638 0.447 1.409 0.447 2.314v0.456c0 1.179-0.369 2.291-1.109 3.337-0.532 0.738-1.236 1.276-2.106 1.617l4.090 6.345h-4.317l-5.050-7.745v7.745h-3.543v-17.513z"></path>
<path fill="#3d4a39" d="M6.276 9.438c0.006 0 0.013 0 0.020 0 0.286 0 0.557-0.061 0.802-0.169l-0.013 0.005c0.248-0.109 0.477-0.275 0.687-0.497 0.208-0.225 0.364-0.47 0.468-0.735 0.103-0.266 0.156-0.555 0.156-0.868 0-0.293-0.054-0.567-0.16-0.822-0.121-0.279-0.283-0.518-0.481-0.721l0 0c-0.226-0.212-0.502-0.374-0.807-0.467l-0.015-0.004c-0.342-0.109-0.747-0.162-1.216-0.162h-1.78v4.428h1.361v0.012h0.977zM7.249 9.642c-0.28 0.126-0.607 0.199-0.951 0.199-0.007 0-0.014-0-0.022-0h-1.381v-0.012h-1.362v-5.235h2.186c0.507 0 0.953 0.061 1.337 0.183 0.394 0.126 0.722 0.314 0.985 0.568l0.005 0.005c0.25 0.261 0.439 0.543 0.565 0.847 0.127 0.305 0.191 0.631 0.191 0.976 0 0.361-0.061 0.699-0.184 1.013s-0.305 0.601-0.547 0.863l-0.001 0.001c-0.247 0.263-0.521 0.46-0.82 0.592zM0.204 1.105h5.735c0.954 0 1.828 0.153 2.618 0.46 0.828 0.327 1.535 0.796 2.124 1.383l-0-0c0.302 0.3 0.56 0.591 0.776 0.877 0.217 0.287 0.391 0.568 0.519 0.842 0.156 0.335 0.273 0.702 0.351 1.103 0.074 0.378 0.116 0.812 0.116 1.257 0 0.014-0 0.027-0 0.041v-0.002 0.456c0 0.611-0.097 1.205-0.287 1.782-0.219 0.638-0.51 1.191-0.872 1.69l0.013-0.019-0.002 0.001c-0.276 0.382-0.594 0.711-0.954 0.99l-0.011 0.008c-0.291 0.224-0.622 0.423-0.975 0.582l-0.031 0.013 4.16 6.454h-4.796l-4.738-7.269v7.268h-3.949v-17.916h0.204zM5.939 1.509h-5.534v17.109h3.138v-8.224l5.362 8.224h3.838l-4.023-6.24 0.23-0.090c0.433-0.17 0.806-0.383 1.143-0.641l-0.011 0.008c0.335-0.257 0.629-0.561 0.883-0.912h-0.001c0.327-0.45 0.6-0.968 0.792-1.524l0.013-0.042c0.169-0.492 0.267-1.059 0.267-1.648 0-0.003 0-0.005 0-0.008v0-0.455c0-0.441-0.036-0.847-0.108-1.22-0.072-0.381-0.183-0.72-0.331-1.037l0.011 0.026c-0.143-0.293-0.301-0.546-0.482-0.779l0.007 0.010c-0.202-0.269-0.448-0.545-0.737-0.833-0.55-0.549-1.211-0.988-1.946-1.279l-0.039-0.014c-0.742-0.287-1.566-0.431-2.473-0.431z"></path>
<path fill="#ae7b3c" d="M3.78 30.527c0.372 0 0.704-0.063 0.996-0.187s0.541-0.302 0.742-0.523l0.002-0.002c0.202-0.225 0.356-0.493 0.463-0.805s0.159-0.655 0.159-1.030v-5.437h1.209v5.437c0 0.516-0.081 0.994-0.246 1.436-0.165 0.444-0.405 0.825-0.709 1.145l0.001-0.002c-0.31 0.322-0.685 0.579-1.104 0.751l-0.022 0.008c-0.442 0.183-0.94 0.275-1.491 0.275s-1.048-0.092-1.491-0.275c-0.441-0.18-0.816-0.438-1.126-0.758l-0.001-0.001c-0.303-0.319-0.545-0.699-0.702-1.121l-0.007-0.023c-0.158-0.417-0.249-0.898-0.249-1.401 0-0.012 0-0.024 0-0.036v0.002-5.437h1.209v5.431c0 0.374 0.055 0.718 0.161 1.030s0.262 0.581 0.463 0.805c0.204 0.225 0.451 0.4 0.745 0.527s0.627 0.191 0.999 0.191zM13.948 26.463h0.458c0.010 0 0.022 0.001 0.034 0.001 0.124 0 0.244-0.022 0.354-0.063l-0.007 0.002c0.106-0.046 0.194-0.115 0.263-0.2l0.001-0.001 2.988-3.371c0.068-0.095 0.157-0.171 0.259-0.223l0.004-0.002c0.092-0.041 0.204-0.062 0.338-0.062h1.028l-3.42 3.851c-0.074 0.090-0.152 0.17-0.237 0.243l-0.003 0.002c-0.078 0.065-0.161 0.119-0.249 0.16 0.113 0.037 0.215 0.092 0.307 0.164s0.182 0.168 0.269 0.285l3.571 4.238h-1.052c-0.079 0-0.145-0.007-0.203-0.017-0.056-0.009-0.105-0.027-0.151-0.051l0.003 0.001c-0.042-0.023-0.078-0.050-0.109-0.081l0 0c-0.033-0.033-0.063-0.068-0.090-0.106l-0.002-0.003-3.094-3.551c-0.071-0.093-0.161-0.169-0.265-0.221l-0.004-0.002c-0.096-0.044-0.242-0.065-0.438-0.065h-0.551v4.095h-1.209v-8.944h1.209v3.92h-0.001zM26.734 26.876c0.351 0 0.662-0.044 0.931-0.129s0.495-0.206 0.676-0.362 0.318-0.342 0.409-0.558c0.092-0.217 0.138-0.456 0.138-0.718 0-0.532-0.175-0.934-0.526-1.204s-0.877-0.406-1.578-0.406h-1.329v3.377l1.278-0.001zM30.881 31.489h-1.077c-0.222 0-0.385-0.086-0.489-0.256l-2.331-3.196c-0.059-0.089-0.135-0.162-0.224-0.215l-0.003-0.002c-0.081-0.044-0.209-0.065-0.38-0.065h-0.921v3.733h-1.209v-8.945h2.537c0.567 0 1.059 0.056 1.472 0.171 0.415 0.114 0.756 0.281 1.025 0.497s0.468 0.476 0.597 0.782c0.129 0.306 0.194 0.649 0.194 1.028 0 0.316-0.050 0.611-0.15 0.886-0.105 0.285-0.252 0.53-0.437 0.741l0.002-0.003c-0.19 0.219-0.422 0.406-0.695 0.56-0.268 0.151-0.579 0.272-0.908 0.345l-0.023 0.004c0.154 0.087 0.288 0.215 0.4 0.381l2.619 3.551zM39.651 28.167l-1.409-3.639c-0.086-0.217-0.176-0.495-0.251-0.78l-0.012-0.056c-0.087 0.337-0.178 0.618-0.269 0.842l-1.409 3.633h3.351zM42.182 31.488h-0.94c-0.006 0-0.013 0-0.019 0-0.092 0-0.177-0.030-0.245-0.082l0.001 0.001c-0.066-0.054-0.118-0.123-0.149-0.202l-0.001-0.003-0.839-2.16h-4.029l-0.839 2.16c-0.029 0.081-0.079 0.148-0.142 0.199l-0.001 0.001c-0.068 0.055-0.156 0.087-0.251 0.087-0.005 0-0.009-0-0.014-0l0.001 0h-0.939l3.589-8.944h1.228l3.59 8.944zM47.369 31.489h-1.215v-8.945h1.215v8.945zM60.143 22.544v8.944h-0.608c-0.005 0-0.011 0-0.018 0-0.081 0-0.157-0.019-0.225-0.052l0.003 0.001c-0.077-0.043-0.14-0.1-0.191-0.167l-0.001-0.002-5.193-6.741c0.015 0.174 0.024 0.379 0.025 0.585v6.375h-1.065v-8.944h0.627c0.054 0 0.1 0.001 0.138 0.008 0.074 0.012 0.138 0.046 0.188 0.095l-0-0c0.029 0.027 0.060 0.062 0.095 0.103l5.193 6.735c-0.008-0.108-0.015-0.214-0.020-0.316-0.006-0.085-0.010-0.186-0.011-0.287v-6.338h1.065zM69.991 28.167l-1.409-3.639c-0.086-0.217-0.176-0.495-0.251-0.78l-0.012-0.056c-0.088 0.337-0.178 0.618-0.269 0.842l-1.41 3.633h3.352zM72.522 31.488h-0.94c-0.006 0-0.013 0-0.019 0-0.092 0-0.177-0.030-0.245-0.082l0.001 0.001c-0.066-0.054-0.118-0.123-0.149-0.202l-0.001-0.003-0.839-2.16h-4.029l-0.839 2.16c-0.030 0.081-0.079 0.148-0.143 0.199l-0.001 0.001c-0.068 0.055-0.156 0.087-0.251 0.087-0.004 0-0.009-0-0.013-0l0.001 0h-0.94l3.59-8.944h1.228l3.59 8.944z"></path>
</svg>
