<!-- Generated by IcoMoon.io -->
<svg version="1.1" xmlns="http://www.w3.org/2000/svg" width="26" height="32" viewBox="0 0 26 32">
<title>designing</title>
<path fill="#fff" d="M22.521 5.66c0.001-0.033 0.001-0.071 0.001-0.109 0-2.966-2.322-5.389-5.247-5.55l-0.014-0.001c-0.001 0-0.003 0-0.004 0-1.002 0-1.932 0.306-2.703 0.831l0.017-0.011c-0.947-0.514-2.073-0.818-3.269-0.82h-0.001c-3.369 0.113-6.183 2.37-7.125 5.445l-0.014 0.055c-2.376 0.728-4.074 2.901-4.074 5.472 0 0.070 0.001 0.139 0.004 0.208l-0-0.010c-0.004 0.078-0.006 0.17-0.006 0.262 0 2.971 2.323 5.399 5.251 5.567l0.015 0.001h3.030l-3.561 6.47c-0.030 0.052-0.049 0.113-0.050 0.18v0c-0.006 0.017-0.010 0.037-0.010 0.058 0 0.004 0 0.009 0 0.013l-0-0.001-0.411 4.1v0.040l-0.339 3.39c-0.002 0.015-0.002 0.032-0.002 0.049 0 0.186 0.105 0.348 0.259 0.43l0.003 0.001c0.071 0.038 0.154 0.060 0.243 0.060 0.115 0 0.222-0.037 0.309-0.101l-0.001 0.001 2.7-2.11 3.24-2.54c0.084-0.040 0.15-0.106 0.189-0.188l0.001-0.002 5.43-9.85h4.45c2.943-0.17 5.266-2.598 5.266-5.569 0-0.092-0.002-0.183-0.007-0.274l0 0.013c0.001-0.045 0.002-0.097 0.002-0.15 0-2.4-1.456-4.461-3.534-5.345l-0.038-0.014zM9.53 17h2.28l-4.12 7.48-1.75-0.96 3.59-6.52zM5.12 30.18l0.17-1.744c0.473 0.12 0.88 0.352 1.207 0.668l-0.001-0.001-1.376 1.077zM7.29 28.48l-0.010 0.008c-0.497-0.516-1.142-0.886-1.867-1.040l-0.024-0.004v-0.014l0.29-2.92 1.939 1.080c0.010 0 0.010 0.010 0.020 0.010s0.010 0.010 0.020 0.010l1.94 1.071-2.31 1.8zM10.32 25.93h-0.010l-1.74-0.97 4.38-7.96h2.28l-4.91 8.929zM20.831 16h-15.48c-2.391-0.168-4.267-2.149-4.267-4.568 0-0.092 0.003-0.184 0.008-0.274l-0.001 0.012c-0.003-0.062-0.005-0.135-0.005-0.208 0-2.161 1.462-3.981 3.451-4.524l0.033-0.008h0.020c2.052 0.16 3.657 1.864 3.657 3.944 0 0.080-0.002 0.158-0.007 0.237l0.001-0.011c0 0.276 0.224 0.5 0.5 0.5s0.5-0.224 0.5-0.5v0c0.002-0.055 0.003-0.12 0.003-0.185 0-2.418-1.706-4.437-3.98-4.919l-0.033-0.006c0.902-2.565 3.26-4.39 6.058-4.489l0.012-0c1.051-0 2.083 0.279 2.99 0.81 0.010 0.010 0.020 0.010 0.030 0.020 0.949 0.669 1.609 1.694 1.787 2.877l0.003 0.024c0.010 0.050 0.010 0.090 0.020 0.14 0.031 0.247 0.238 0.437 0.489 0.44h0.060c0.251-0.035 0.443-0.248 0.443-0.506 0-0.019-0.001-0.037-0.003-0.056l0 0.002c0-0.002 0-0.004 0-0.006 0-0.013-0.004-0.024-0.011-0.034l0 0c-0.154-1.295-0.761-2.425-1.656-3.247l-0.004-0.003c0.523-0.288 1.147-0.458 1.809-0.46h0.001c2.374 0.158 4.24 2.123 4.24 4.523 0 0.013-0 0.026-0 0.039v-0.002c-0.61 0.068-1.162 0.264-1.647 0.56l0.018-0.010c-0.328 0.181-0.61 0.39-0.861 0.632l0.001-0.001c-0.413 0.391-0.761 0.846-1.026 1.351l-0.014 0.028c-0.036 0.067-0.058 0.146-0.058 0.23 0 0.193 0.112 0.36 0.275 0.439l0.003 0.001c0.063 0.037 0.139 0.059 0.219 0.060h0c0.002 0 0.004 0 0.006 0 0.192 0 0.359-0.108 0.442-0.267l0.001-0.003c0.229-0.445 0.523-0.823 0.876-1.136l0.004-0.003c0.236-0.228 0.51-0.419 0.811-0.562l0.019-0.008c0.393-0.203 0.856-0.327 1.346-0.339l0.004-0c0.010-0.010 0.010-0.010 0.019 0 1.853 0.67 3.154 2.415 3.154 4.463 0 0.062-0.001 0.124-0.004 0.186l0-0.009c0.005 0.078 0.007 0.169 0.007 0.261 0 2.419-1.876 4.4-4.253 4.567l-0.015 0.001zM20.281 10.56c0.018-0.050 0.029-0.107 0.029-0.167 0-0.123-0.045-0.236-0.119-0.324l0.001 0.001c-0.055-0.071-0.13-0.123-0.217-0.149l-0.003-0.001c-0.046-0.015-0.099-0.023-0.154-0.023-0.223 0-0.413 0.142-0.485 0.34l-0.001 0.004c-0.148 0.427-0.233 0.919-0.233 1.432 0 0.119 0.005 0.237 0.014 0.354l-0.001-0.015c0 0 0 0 0 0 0 0.003-0.001 0.005-0.003 0.007v0c-0.002 0.002-0.004 0.003-0.007 0.003-0 0-0 0-0 0h0c-0.010 0.020-0.010 0.030-0.019 0.040l0.030-0.020c0.032 0.62 0.203 1.194 0.481 1.701l-0.010-0.021c0.084 0.16 0.249 0.268 0.44 0.27h0c0.081 0.001 0.16-0.020 0.23-0.060 0.161-0.082 0.269-0.247 0.269-0.437 0-0.085-0.022-0.166-0.060-0.236l0.001 0.003c-0.235-0.454-0.372-0.992-0.372-1.561 0-0.408 0.071-0.8 0.201-1.163l-0.008 0.024zM7.301 12.62c-0.309 0.102-0.664 0.161-1.033 0.161-0.608 0-1.179-0.16-1.673-0.44l0.017 0.009c-0.073-0.044-0.161-0.070-0.255-0.070-0.276 0-0.499 0.224-0.499 0.499 0 0.197 0.115 0.368 0.281 0.449l0.003 0.001c0.621 0.345 1.362 0.549 2.15 0.55h0c0.448 0 0.894-0.070 1.32-0.21 0.203-0.064 0.347-0.25 0.347-0.47 0-0.057-0.010-0.112-0.028-0.164l0.001 0.003c-0.067-0.202-0.255-0.345-0.475-0.345-0.055 0-0.109 0.009-0.159 0.026l0.004-0.001zM15.891 11.66c-0.233-0.235-0.492-0.443-0.772-0.62l-0.018-0.011c-0.27-0.177-0.579-0.338-0.904-0.468l-0.035-0.012c-0.27-0.111-0.586-0.201-0.914-0.256l-0.027-0.004c-0.162-0.038-0.348-0.060-0.539-0.060h-0c-0.067-0.037-0.146-0.059-0.231-0.059-0.092 0-0.178 0.026-0.251 0.070l0.002-0.001h-0.010c-0.012-0.005-0.026-0.008-0.040-0.008s-0.028 0.003-0.041 0.008l0.001-0c-0.591 0.045-1.135 0.206-1.623 0.461l0.023-0.011c-0.144 0.089-0.239 0.247-0.239 0.427 0 0.276 0.224 0.5 0.5 0.5 0.068 0 0.133-0.014 0.192-0.038l-0.003 0.001c0.165-0.089 0.339-0.159 0.52-0.21h0.010c0.293-0.094 0.63-0.149 0.979-0.149 0.081 0 0.162 0.003 0.241 0.009l-0.011-0.001c0.378 0.025 0.749 0.11 1.101 0.25 0.289 0.111 0.564 0.255 0.819 0.43 0.281 0.19 0.54 0.411 0.77 0.66 0.282 0.303 0.525 0.649 0.718 1.024l0.012 0.026c0.083 0.167 0.253 0.28 0.449 0.28 0 0 0 0 0.001 0h-0c0.153-0.004 0.288-0.073 0.382-0.18l0.001-0.001c0.072-0.085 0.116-0.196 0.116-0.318 0-0.085-0.021-0.165-0.059-0.234l0.001 0.003c-0.294-0.586-0.669-1.085-1.117-1.507l-0.003-0.003zM12.691 4.28c0.133-0.091 0.219-0.242 0.219-0.413 0-0.276-0.224-0.5-0.5-0.5-0.064 0-0.126 0.012-0.182 0.034l0.003-0.001c-0.454 0.235-0.992 0.372-1.561 0.372-0.408 0-0.8-0.071-1.163-0.201l0.024 0.008c-0.050-0.018-0.107-0.029-0.167-0.029-0.218 0-0.404 0.14-0.472 0.335l-0.001 0.003c-0.014 0.045-0.022 0.097-0.022 0.151 0 0.223 0.141 0.414 0.339 0.488l0.004 0.001c0.442 0.151 0.95 0.238 1.479 0.24h0.001c0.008 0 0.016 0 0.025 0 0.722 0 1.403-0.181 1.997-0.501l-0.023 0.011z"></path>
</svg>
