<!-- Generated by IcoMoon.io -->
<svg version="1.1" xmlns="http://www.w3.org/2000/svg" width="31" height="32" viewBox="0 0 31 32">
<title>furniture</title>
<path fill="#fff" d="M24.242-40.631c-0 0-0 0-0 0-0.19 0-0.343-0.154-0.343-0.343 0-0 0-0 0-0v0-1.666h-15.797v1.666c0 0.19-0.154 0.344-0.344 0.344s-0.344-0.154-0.344-0.344v0-5.973c0-1.011 0.822-1.833 1.832-1.833h13.507c1.011 0 1.833 0.823 1.833 1.833v5.973c0 0 0 0 0 0 0 0.19-0.154 0.343-0.343 0.343 0 0 0 0 0 0v0zM8.101-43.328h15.797v-3.619c-0.001-0.633-0.513-1.145-1.146-1.146h-13.507c-0.632 0.001-1.144 0.514-1.144 1.146v3.619h-0zM25.624-48.848h-19.249c-0.19 0-0.344-0.154-0.344-0.344s0.154-0.344 0.344-0.344v0h19.249c0.19 0 0.344 0.154 0.344 0.344s-0.154 0.344-0.344 0.344v0zM-119.276-9.738c-0.19-0-0.343-0.154-0.344-0.344v-3.184h-3.931v3.184c-0.006 0.185-0.158 0.333-0.344 0.333s-0.338-0.148-0.344-0.333v-5.035h-0.638c-0.183-0.008-0.329-0.159-0.329-0.344s0.145-0.335 0.328-0.344l0.001-0h5.293l0.49-4.409v-2.122c0.008-0.183 0.159-0.329 0.344-0.329s0.335 0.145 0.344 0.328l0 0.001v2.136l-0 0.025c-0 0.009-0.001 0.017-0.002 0.024l0-0.001-0.523 4.71v5.359c-0 0.19-0.154 0.344-0.344 0.344v0zM-123.551-13.953h3.931v-1.163h-3.931v1.163zM-128.375-9.738c-0.001 0-0.001 0-0.002 0-0.010 0-0.020-0.001-0.030-0.001l0.001 0h-2.278c-0.183-0.008-0.329-0.159-0.329-0.344s0.145-0.335 0.328-0.344l0.001-0h1.965v-7.848h-5.579c-0.005 0-0.010 0-0.015 0-0.19 0-0.344-0.154-0.344-0.344s0.154-0.344 0.344-0.344c0.005 0 0.011 0 0.016 0l-0.001-0h11.847c0.183 0.008 0.329 0.159 0.329 0.344s-0.145 0.335-0.328 0.344l-0.001 0h-5.581v7.848h1.966c0.183 0.008 0.329 0.159 0.329 0.344s-0.145 0.335-0.328 0.344l-0.001 0h-2.279c-0.008 0.001-0.018 0.001-0.028 0.001-0.001 0-0.002 0-0.002 0h0zM-132.856-9.738c-0.19 0-0.344-0.154-0.344-0.344v-3.184h-3.931v3.184c-0.008 0.183-0.159 0.329-0.344 0.329s-0.335-0.146-0.344-0.328l-0-0.001v-5.359l-0.523-4.71c-0.001-0.007-0.002-0.015-0.002-0.024l-0-0.001c-0.001-0.007-0.001-0.015-0.001-0.023v-2.136c0.008-0.183 0.159-0.329 0.344-0.329s0.335 0.145 0.344 0.328l0 0.001v2.122l0.49 4.409h5.292c0.183 0.008 0.329 0.159 0.329 0.344s-0.145 0.335-0.328 0.344l-0.001 0h-0.638v5.035c0 0 0 0 0 0 0 0.19-0.154 0.343-0.343 0.343-0 0-0 0-0 0h0zM-137.13-13.953h3.931v-1.163h-3.931v1.163zM-91.257-11.326c-0.19-0-0.343-0.154-0.344-0.344v-0.946h-7.899c-0 0-0 0-0 0-0.19 0-0.343-0.154-0.343-0.343 0-0 0-0 0-0.001v0-6.584h-7.555v7.873c-0.006 0.185-0.158 0.333-0.344 0.333s-0.338-0.148-0.344-0.333v-7.874h-1.038c-0.19-0-0.343-0.154-0.344-0.344v-0.86c0-0.19 0.154-0.343 0.344-0.343h19.25c0.19 0 0.344 0.154 0.344 0.343v0.86c0 0.19-0.154 0.343-0.344 0.343h-1.038v7.874c0 0.19-0.154 0.343-0.344 0.343zM-99.157-13.303h7.556v-2.776h-7.556v2.776zM-99.157-16.767h7.556v-2.777h-7.556v2.777zM-91.257-20.231h1.039v-0.172h-18.563v0.172h17.524zM-94.928-14.347h-0.898c-0.19 0-0.344-0.154-0.344-0.344s0.154-0.344 0.344-0.344h0.898c0.19 0 0.344 0.154 0.344 0.344s-0.154 0.344-0.344 0.344v0zM-94.928-17.812h-0.898c-0.19 0-0.344-0.154-0.344-0.344s0.154-0.344 0.344-0.344h0.898c0.19 0 0.344 0.154 0.344 0.344s-0.154 0.344-0.344 0.344v0zM-62.382-11.326c-0.19-0-0.343-0.154-0.344-0.344v-4.409h-15.798v4.409c-0.006 0.185-0.158 0.333-0.344 0.333s-0.338-0.148-0.344-0.333v-7.874h-1.038c-0.19-0-0.343-0.154-0.344-0.344v-0.86c0-0.19 0.154-0.343 0.344-0.343h19.25c0.19 0 0.344 0.154 0.344 0.343v0.86c0 0.19-0.154 0.343-0.344 0.343h-1.038v7.874c0 0.19-0.154 0.343-0.344 0.343zM-70.282-16.767h7.556v-2.777h-7.556v2.777zM-78.524-16.767h7.555v-2.777h-7.555v2.777zM-62.382-20.231h1.039v-0.172h-18.563v0.172h17.524zM-66.053-17.812h-0.898c-0.183-0.008-0.329-0.159-0.329-0.344s0.145-0.335 0.328-0.344l0.001-0h0.898c0.183 0.008 0.329 0.159 0.329 0.344s-0.145 0.335-0.328 0.344l-0.001 0zM-74.297-17.865h-0.899c-0.183-0.008-0.329-0.159-0.329-0.344s0.145-0.335 0.328-0.344l0.001-0h0.899c0.183 0.008 0.329 0.159 0.329 0.344s-0.145 0.335-0.328 0.344l-0.001 0zM-37.787-6.24c-0 0-0 0-0 0-0.19 0-0.343-0.154-0.343-0.343 0-0 0-0 0-0v0-1.038h-7.24v1.038c0 0.19-0.154 0.344-0.344 0.344s-0.344-0.154-0.344-0.344v0-6.49h-1.254c-0 0-0 0-0 0-0.19 0-0.343-0.154-0.343-0.343 0-0 0-0 0-0v0c0.017-0.661 0.539-1.171 1.191-1.171h0.493l0.003-7.524c0.091-2.285 1.943-4.065 4.218-4.065 0.004 0 0.009-0 0.014-0 2.269 0 4.118 1.796 4.204 4.044l0 0.008 0.004 7.538h0.493c0.641 0 1.176 0.521 1.191 1.161v0.010c0 0 0 0 0 0 0 0.19-0.154 0.343-0.343 0.343-0 0-0 0-0 0h-1.255v6.49c-0.001 0.19-0.155 0.344-0.345 0.344 0 0 0 0 0 0v0zM-45.371-8.309h7.24v-2.039h-7.24v2.039zM-45.371-11.035h7.24v-2.038h-7.24v2.038zM-37.787-13.761h1.098c-0.090-0.086-0.212-0.139-0.347-0.139h-9.429c-0.133 0-0.256 0.053-0.347 0.139h9.025zM-45.284-14.588h7.068l-0.004-7.524c-0.075-1.888-1.626-3.378-3.531-3.378-0.003 0-0.007 0-0.010 0-1.899 0-3.448 1.503-3.521 3.384l-0 0.007-0.003 7.511zM-41.318-8.984h-0.863c-0.19 0-0.344-0.154-0.344-0.344s0.154-0.344 0.344-0.344v0h0.863c0.19 0 0.344 0.154 0.344 0.344s-0.154 0.344-0.344 0.344v0zM-41.318-11.711h-0.863c-0.19 0-0.344-0.154-0.344-0.344s0.154-0.344 0.344-0.344v0h0.863c0.19 0 0.344 0.154 0.344 0.344s-0.154 0.344-0.344 0.344v0zM-43.699-17.746c-0 0-0.001 0-0.002 0-0.189 0-0.343-0.154-0.343-0.343 0-0.095 0.039-0.181 0.102-0.244l3.898-3.898c0.062-0.062 0.148-0.101 0.243-0.101 0.19 0 0.344 0.154 0.344 0.344 0 0.095-0.038 0.181-0.101 0.243v0l-3.898 3.898c-0.062 0.062-0.147 0.101-0.242 0.101-0 0-0.001 0-0.001 0h0zM-42.001-17.986c-0.19-0-0.343-0.154-0.343-0.344 0-0.095 0.038-0.181 0.101-0.243v0l1.96-1.959c0.062-0.059 0.145-0.095 0.237-0.095 0.19 0 0.344 0.154 0.344 0.344 0 0.092-0.036 0.176-0.095 0.237l-1.96 1.958c-0.062 0.062-0.148 0.101-0.243 0.101v0zM-43.458-19.444c-0 0-0.001 0-0.002 0-0.189 0-0.343-0.154-0.343-0.343 0-0.095 0.039-0.181 0.102-0.244l1.958-1.959c0.062-0.062 0.148-0.101 0.243-0.101 0.19 0 0.344 0.154 0.344 0.344 0 0.095-0.038 0.181-0.101 0.243v0l-1.958 1.959c-0.062 0.062-0.148 0.101-0.243 0.101-0 0-0 0-0 0h0zM-17.603-6.24c-0.19-0.001-0.343-0.155-0.343-0.344 0-0.049 0.010-0.096 0.029-0.138l-0.001 0.002 0.248-0.573h-0.546c-0.19 0-0.343-0.154-0.343-0.343v-7.348c0-0.2 0.18-0.358 0.374-0.342h2.882v-4.040h-2.913c-0.19-0-0.344-0.154-0.344-0.344 0-0.019 0.002-0.038 0.004-0.056l-0 0.002 0.969-6.123c0.027-0.165 0.168-0.29 0.339-0.29 0 0 0 0 0 0h4.572c0.169 0 0.313 0.123 0.339 0.29l0.971 6.123c0.003 0.016 0.004 0.035 0.004 0.054 0 0.19-0.154 0.344-0.344 0.344h-0.767v1.635c0 0.19-0.154 0.344-0.344 0.344s-0.344-0.154-0.344-0.344v0-1.635h-1.456v4.040h7.051c0.194-0.015 0.374 0.142 0.374 0.342v7.347c0 0.19-0.154 0.344-0.344 0.344h-0.533l0.249 0.573c0.018 0.040 0.028 0.087 0.028 0.137 0 0.19-0.154 0.344-0.344 0.344-0.14 0-0.261-0.084-0.314-0.205l-0.001-0.002-0.367-0.847h-8.105l-0.366 0.846c-0.057 0.13-0.183 0.207-0.316 0.207zM-8.583-7.98h0.705v-2.985h-9.994v2.985h0.718c0.002-0 0.005-0 0.008-0s0.006 0 0.008 0l-0-0h8.54c0.002-0 0.005-0 0.008-0s0.005 0 0.008 0l-0-0zM-17.872-11.653h9.994v-2.986h-9.994v2.986zM-12.816-20.054h0.709l-0.862-5.435h-3.984l-0.86 5.436h4.997zM-12.294-9.128h-1.164c-0.19 0-0.344-0.154-0.344-0.344s0.154-0.344 0.344-0.344v0h1.164c0.19 0 0.344 0.154 0.344 0.344s-0.154 0.344-0.344 0.344v0zM-12.294-12.804h-1.164c-0.19 0-0.344-0.154-0.344-0.344s0.154-0.344 0.344-0.344v0h1.164c0.19 0 0.344 0.154 0.344 0.344s-0.154 0.344-0.344 0.344v0zM25.085-12.080c-0.133 0-0.26-0.078-0.316-0.207l-0.322-0.742h-16.883l-0.32 0.741c-0.058 0.114-0.174 0.191-0.308 0.191-0.19 0-0.344-0.154-0.344-0.344 0-0.043 0.008-0.084 0.022-0.122l-0.001 0.002 0.202-0.468h-0.441c-0.19 0-0.344-0.154-0.344-0.344v-6.62c0-0.197 0.177-0.355 0.365-0.343h9.581c0.007-0 0.015-0.002 0.022-0 0.009-0.002 0.015 0 0.022 0.001h9.581c0.187-0.012 0.365 0.146 0.365 0.343v6.62c0 0.19-0.153 0.344-0.344 0.344h-0.427l0.203 0.468c0.018 0.040 0.029 0.087 0.029 0.137 0 0.19-0.154 0.343-0.343 0.343-0 0-0 0-0 0v0zM24.681-13.716h0.6v-2.623h-8.937v2.623h8.322c0.002-0 0.005-0 0.008-0s0.005 0 0.008 0l-0-0zM7.347-13.716h8.309v-2.623h-8.937v2.623h0.613c0.002-0 0.005-0 0.008-0s0.005 0 0.008 0l-0-0zM16.344-17.026h8.937v-2.622h-8.937v2.622zM6.719-17.026h8.937v-2.622h-8.937v2.622zM21.337-14.683h-1.049c-0.19 0-0.344-0.154-0.344-0.344s0.154-0.344 0.344-0.344v0h1.049c0.19 0 0.344 0.154 0.344 0.344s-0.154 0.344-0.344 0.344v0zM11.71-14.683h-1.049c-0.19 0-0.344-0.154-0.344-0.344s0.154-0.344 0.344-0.344v0h1.049c0.19 0 0.344 0.154 0.344 0.344s-0.154 0.344-0.344 0.344c-0 0-0 0-0 0v0zM21.337-17.993h-1.049c-0.19 0-0.344-0.154-0.344-0.344s0.154-0.344 0.344-0.344v0h1.049c0.19 0 0.344 0.154 0.344 0.344s-0.154 0.344-0.344 0.344v0zM11.71-17.993h-1.049c-0.19 0-0.344-0.154-0.344-0.344s0.154-0.344 0.344-0.344v0h1.049c0.19 0 0.344 0.154 0.344 0.344s-0.154 0.344-0.344 0.344c-0 0-0 0-0 0v0zM-137.446 16.794c0 0-0 0-0 0-0.19 0-0.343-0.154-0.343-0.343 0-0.049 0.010-0.096 0.029-0.139l-0.001 0.002 0.202-0.468h-0.441c-0 0-0 0-0 0-0.19 0-0.343-0.154-0.343-0.343 0-0 0-0 0-0v0-6.62c0-0.19 0.154-0.344 0.344-0.344h19.25c0.19 0 0.344 0.153 0.344 0.344v6.619c0 0 0 0 0 0 0 0.19-0.154 0.343-0.343 0.343-0 0-0 0-0 0h-0.427l0.203 0.468c0.018 0.040 0.028 0.087 0.028 0.137 0 0.19-0.154 0.344-0.344 0.344-0.14 0-0.261-0.084-0.315-0.205l-0.001-0.002-0.322-0.741h-16.883l-0.321 0.741c-0.054 0.123-0.175 0.208-0.315 0.208-0 0-0 0-0 0v0zM-119.694 15.158h0.6v-5.932h-8.937v5.932h8.337zM-137.028 15.158h8.309v-2.622h-8.937v2.622h0.629zM-137.656 11.848h8.937v-2.622h-8.937v2.622zM-132.663 14.191h-1.049c-0.19 0-0.344-0.154-0.344-0.344s0.154-0.344 0.344-0.344v0h1.049c0.19 0 0.344 0.154 0.344 0.344s-0.154 0.344-0.344 0.344v0zM-127.304 13.060c-0 0-0 0-0 0-0.19 0-0.343-0.154-0.343-0.343 0-0 0-0 0-0.001v0-1.049c0-0.19 0.154-0.344 0.344-0.344s0.344 0.154 0.344 0.344v0 1.049c0 0.19-0.154 0.344-0.344 0.344zM-132.663 10.88h-1.049c-0.19 0-0.344-0.154-0.344-0.344s0.154-0.344 0.344-0.344v0h1.049c0.19 0 0.344 0.154 0.344 0.344s-0.154 0.344-0.344 0.344v0zM-90.826 18.207c-0.19 0-0.344-0.154-0.344-0.344v-0.12h-16.646v0.12c0 0.19-0.154 0.344-0.344 0.344s-0.344-0.154-0.344-0.344v0-0.12h-0.59c-0.197 0.022-0.374-0.142-0.374-0.343v-9.93c0-0.19 0.154-0.344 0.344-0.344h19.25c0 0 0 0 0 0 0.19 0 0.343 0.154 0.343 0.343 0 0.011-0.001 0.022-0.001 0.032l0-0.001v3.249c0.001 0.010 0.001 0.020 0.001 0.030v6.619c0 0 0 0 0 0.001 0 0.19-0.154 0.343-0.343 0.343-0 0-0 0-0 0h-0.607v0.12c-0 0.19-0.154 0.343-0.344 0.343 0 0 0 0 0 0v0zM-99.155 17.056h8.937v-2.622h-8.937v2.622zM-108.781 17.056h8.937v-2.622h-8.937v2.622zM-99.155 13.746h8.937v-2.935c-0.001-0.009-0.001-0.020-0.001-0.030v-2.966h-8.935v5.932zM-108.781 13.746h8.939v-5.932h-8.939v5.932zM-94.162 16.089h-1.049c-0.19 0-0.344-0.154-0.344-0.344s0.154-0.344 0.344-0.344h1.049c0.19 0 0.344 0.154 0.344 0.344s-0.154 0.344-0.344 0.344v0zM-103.788 16.089h-1.049c-0.19 0-0.344-0.154-0.344-0.344s0.154-0.344 0.344-0.344h1.049c0.19 0 0.344 0.154 0.344 0.344s-0.154 0.344-0.344 0.344v0zM-90.893 11.647c-0 0-0 0-0 0-0.19 0-0.343-0.154-0.343-0.343 0 0 0 0 0 0v0-1.048c0-0.19 0.154-0.344 0.344-0.344s0.344 0.154 0.344 0.344v0 1.048c0 0.19-0.154 0.344-0.344 0.344zM-108.113 11.647c-0 0-0 0-0 0-0.19 0-0.343-0.154-0.343-0.343 0 0 0 0 0 0v0-1.048c0-0.19 0.154-0.344 0.344-0.344s0.344 0.154 0.344 0.344v0 1.048c0 0 0 0 0 0 0 0.19-0.154 0.343-0.343 0.343-0 0-0 0-0 0h0zM-61.951 19.979c-0 0-0 0-0 0-0.19 0-0.343-0.154-0.343-0.343 0-0 0-0 0-0.001v0-0.122h-16.646v0.122c0 0.19-0.154 0.344-0.344 0.344s-0.344-0.154-0.344-0.344v0-0.122h-0.59c-0.196 0.022-0.374-0.142-0.374-0.343v-3.311c0-0.19 0.154-0.343 0.344-0.343h1.405v-0.882h-1.405c-0.19 0-0.344-0.154-0.344-0.344s0.154-0.344 0.344-0.344v0h8.229l0.232-0.752h-5.007c-0 0-0 0-0 0-0.19 0-0.343-0.154-0.343-0.343 0-0 0-0 0-0v0-7.153c0-0.19 0.154-0.344 0.344-0.344h12.343c0 0 0 0 0 0 0.19 0 0.343 0.154 0.343 0.343 0 0 0 0 0 0v-0 7.154c0 0 0 0 0 0 0 0.19-0.154 0.343-0.343 0.343-0 0-0 0-0 0h-5.008l0.232 0.752h8.23c0.19 0 0.344 0.154 0.344 0.344s-0.154 0.344-0.344 0.344h-1.405v0.882h1.405c0 0 0 0 0 0 0.19 0 0.343 0.154 0.343 0.343 0 0 0 0 0 0v-0 3.31c-0 0.189-0.154 0.343-0.343 0.343-0 0-0 0-0 0h-0.607v0.122c0 0.19-0.154 0.343-0.344 0.343zM-70.282 18.826h8.938v-2.622h-8.938v2.622zM-79.906 18.826h8.937v-2.622h-8.937v2.622zM-78.158 15.516h15.066v-0.882h-6.384c-0.002 0-0.005 0-0.008 0s-0.005-0-0.008-0l0 0h-2.267c-0.002 0-0.005 0-0.008 0s-0.005-0-0.008-0l0 0h-6.383v0.882h-0zM-71.301 13.947h1.351l-0.232-0.752h-0.888l-0.232 0.752zM-69.919 12.508h5.122v-6.466h-11.655v6.466h5.121c0.002 0 0.005 0 0.008 0s0.005-0 0.008-0l-0 0 1.396-0zM-65.287 17.86h-1.049c-0.19 0-0.344-0.154-0.344-0.344s0.154-0.344 0.344-0.344h1.049c0.19 0 0.344 0.154 0.344 0.344s-0.154 0.344-0.344 0.344v0zM-74.913 17.86h-1.049c-0.19 0-0.344-0.154-0.344-0.344s0.154-0.344 0.344-0.344h1.049c0.19 0 0.344 0.154 0.344 0.344s-0.154 0.344-0.344 0.344v0zM-38.541 17.249c-0 0-0 0-0.001 0-0.19 0-0.343-0.154-0.343-0.343 0-0 0-0 0-0.001v0-0.702h-5.731v0.702c0 0.19-0.154 0.344-0.344 0.344s-0.344-0.154-0.344-0.344v0-0.702h-5.727v0.694c0 0.19-0.154 0.344-0.344 0.344s-0.344-0.154-0.344-0.344v0-8.47c0-0.19 0.154-0.344 0.344-0.344h19.249c0.19 0 0.344 0.154 0.344 0.344v8.468c0 0.19-0.154 0.344-0.344 0.344s-0.344-0.154-0.344-0.344v0-0.693h-5.729v0.702c0 0 0 0 0 0.001 0 0.19-0.154 0.343-0.343 0.343-0 0-0 0-0 0h0zM-38.198 15.516h5.729v-4.658h-5.729v4.658zM-44.617 15.516h5.731v-5.689h-5.731v5.689zM-51.031 15.516h5.727v-4.658h-5.727v4.658zM-38.198 10.17h5.729v-1.398h-5.729v1.398zM-51.031 10.17h5.727v-1.398h-5.727v1.398zM-44.617 9.139h5.731v-0.367h-5.731v0.367zM-37.772 13.869c-0 0-0 0-0.001 0-0.19 0-0.343-0.154-0.343-0.343 0 0 0 0 0 0v0-0.677c0-0.19 0.154-0.344 0.344-0.344s0.344 0.154 0.344 0.344v0 0.677c0 0 0 0 0 0 0 0.19-0.154 0.343-0.343 0.343-0 0-0 0-0 0h0zM-45.729 13.869c-0 0-0 0-0 0-0.19 0-0.343-0.154-0.343-0.343 0 0 0 0 0 0v0-0.677c0-0.19 0.154-0.344 0.344-0.344s0.344 0.154 0.344 0.344v0 0.677c0 0.19-0.153 0.344-0.344 0.344zM-34.983 9.738h-0.699c-0.19 0-0.344-0.154-0.344-0.344s0.154-0.344 0.344-0.344v0h0.699c0.19 0 0.344 0.154 0.344 0.344s-0.154 0.344-0.344 0.344v0zM-47.818 9.738h-0.698c-0.19 0-0.344-0.154-0.344-0.344s0.154-0.344 0.344-0.344v0h0.698c0.19 0 0.344 0.154 0.344 0.344s-0.154 0.344-0.344 0.344v0zM-8.211 22.635h-9.329c-0 0-0 0-0 0-0.19 0-0.343-0.154-0.343-0.343 0-0 0-0 0-0v0-19.249c0-0.19 0.153-0.344 0.343-0.344h9.331c0 0 0 0 0 0 0.19 0 0.343 0.154 0.343 0.343 0 0.011-0 0.022-0.002 0.032l0-0.001v6.357c0.001 0.009 0.002 0.020 0.002 0.030s-0.001 0.021-0.002 0.032l0-0.001v6.355c0.001 0.009 0.002 0.020 0.002 0.031s-0.001 0.021-0.002 0.032l0-0.001v6.384c0 0 0 0 0 0 0 0.19-0.154 0.343-0.343 0.343-0 0-0 0-0 0h0zM-17.196 21.948h8.642v-5.728h-8.642v5.728zM-17.196 15.531h8.642v-5.727h-8.642v5.727zM-17.196 9.113h8.642v-5.728h-8.642v5.728zM-16.56 19.937c-0 0-0 0-0 0-0.19 0-0.343-0.154-0.343-0.343 0-0 0-0 0-0v0-1.017c0-0.19 0.154-0.344 0.344-0.344s0.344 0.154 0.344 0.344v1.017c0 0.19-0.153 0.343-0.344 0.343zM-16.56 13.519c-0 0-0 0-0 0-0.19 0-0.343-0.154-0.343-0.343 0 0 0 0 0 0v0-1.016c0-0.19 0.154-0.344 0.344-0.344s0.344 0.154 0.344 0.344v1.015c0 0.19-0.153 0.344-0.344 0.344zM-16.56 7.101c-0 0-0 0-0 0-0.19 0-0.343-0.154-0.343-0.343 0-0 0-0 0-0v0-1.015c0-0.19 0.154-0.344 0.344-0.344s0.344 0.154 0.344 0.344v1.015c0 0.19-0.153 0.344-0.344 0.344zM25.33 22.635h-18.659c-0 0-0 0-0 0-0.19 0-0.343-0.154-0.343-0.343 0-0 0-0 0-0v0-19.249c0-0.19 0.153-0.344 0.343-0.344h18.659c0.19 0 0.344 0.153 0.344 0.344v19.249c0 0 0 0 0 0 0 0.19-0.154 0.343-0.343 0.343 0 0 0 0 0 0v0zM16.344 21.948h8.642v-18.562h-8.642v18.562zM7.014 21.948h8.641v-5.729h-8.642v5.729zM7.014 15.531h8.641v-12.145h-8.642v12.145zM14.913 19.937c-0 0-0 0-0 0-0.19 0-0.343-0.154-0.343-0.343 0-0 0-0 0-0v0-1.017c0-0.19 0.154-0.344 0.344-0.344s0.344 0.154 0.344 0.344v1.017c0 0.19-0.153 0.343-0.343 0.343zM17.086 13.519c-0 0-0 0-0.001 0-0.19 0-0.343-0.154-0.343-0.343 0 0 0 0 0 0v0-1.016c0-0.19 0.154-0.344 0.344-0.344s0.344 0.154 0.344 0.344v0 1.015c0 0.19-0.154 0.344-0.344 0.344zM14.913 13.519c-0 0-0 0-0 0-0.19 0-0.343-0.154-0.343-0.343 0 0 0 0 0 0v0-1.016c0-0.19 0.154-0.344 0.344-0.344s0.344 0.154 0.344 0.344v1.015c0 0.19-0.153 0.344-0.343 0.344zM-119.045 51.51h-18.66c-0 0-0 0-0 0-0.19 0-0.343-0.154-0.343-0.343 0-0 0-0 0-0v0-19.249c0-0.19 0.154-0.344 0.344-0.344h18.66c0 0 0 0 0 0 0.19 0 0.343 0.154 0.343 0.343 0 0 0 0 0 0v-0 19.25c0 0 0 0 0 0 0 0.19-0.154 0.343-0.343 0.343 0 0 0 0 0 0v0zM-128.030 50.823h8.642v-18.562h-8.642v18.562zM-137.361 50.823h8.642v-18.562h-8.642v18.562zM-123.71 48.277c-1.611 0-2.922-1.311-2.922-2.921v-7.628c0-1.611 1.311-2.922 2.922-2.922s2.923 1.311 2.923 2.922l-0.001 7.628c0 1.611-1.311 2.921-2.922 2.921zM-123.71 35.493c-1.233 0.001-2.233 1.001-2.234 2.234v7.628c0.002 1.233 1.001 2.233 2.234 2.234h0c1.233-0.001 2.233-1.001 2.234-2.234v-0l0.001-7.628c0-1.232-1.003-2.234-2.236-2.234zM-127.288 42.394c-0 0-0 0-0 0-0.19 0-0.343-0.154-0.343-0.343 0-0 0-0 0-0v0-1.015c0-0.19 0.154-0.344 0.344-0.344s0.344 0.154 0.344 0.344v0 1.015c0 0 0 0 0 0 0 0.19-0.154 0.343-0.343 0.343-0 0-0 0-0 0h0zM-129.461 42.394c-0 0-0 0-0 0-0.19 0-0.343-0.154-0.343-0.343 0-0 0-0 0-0v0-1.015c0-0.19 0.154-0.344 0.344-0.344s0.344 0.154 0.344 0.344v0 1.015c0 0 0 0 0 0 0 0.19-0.154 0.343-0.343 0.343-0 0-0 0-0.001 0h0zM-60.658 36.502c0-0.19-0.154-0.344-0.344-0.344s-0.344 0.154-0.344 0.344v0 3.762h-0.024c-0.033-0.755-0.652-1.36-1.416-1.36h-1.575c-0.763 0-1.382 0.605-1.415 1.36h-12.663c-0 0-0.001 0-0.002 0-0.568 0-1.084 0.22-1.468 0.579l0.001-0.001v-1.618c0-0.19-0.154-0.344-0.344-0.344s-0.344 0.154-0.344 0.344v0l-0.001 6.856c0 0.184 0.144 0.334 0.325 0.344v0.157c0 0.19 0.154 0.344 0.344 0.344s0.344-0.154 0.344-0.344v0-0.157h17.911v0.157c0 0.19 0.154 0.344 0.344 0.344s0.344-0.154 0.344-0.344v0-0.157c0.181-0.009 0.326-0.16 0.326-0.344l-0.001-9.578zM-64.359 39.591h1.575c0.383 0 0.699 0.295 0.731 0.668h-3.037c0.035-0.376 0.348-0.668 0.73-0.668h0zM-78.437 40.951h17.092v1.125h-18.521c0.161-0.65 0.739-1.124 1.428-1.125h0zM-79.906 45.736v-2.973h18.562l0.001 2.973h-18.563zM-31.783 43.648c0-0.19-0.154-0.344-0.344-0.344h-7.561v-3.176c0-0 0-0 0-0 0-0.19-0.154-0.343-0.343-0.343-0 0-0 0-0 0h-3.438c-0 0-0 0-0.001 0-0.19 0-0.343 0.154-0.343 0.343 0 0 0 0 0 0v-0 3.176h-1.575c0.194-0.609-0.392-3.184-0.21-3.672 0.014-0.036 0.022-0.077 0.022-0.121 0-0.19-0.154-0.343-0.343-0.343-0 0-0 0-0 0h-0.463v-1.174h1.834c0 0 0 0 0 0 0.19 0 0.343-0.154 0.343-0.343 0-0.018-0.001-0.036-0.004-0.053l0 0.002-0.649-4.388c-0.025-0.167-0.168-0.293-0.34-0.293-0 0-0 0-0 0h-3.057c-0 0-0 0-0 0-0.172 0-0.314 0.126-0.339 0.291l-0 0.002-0.648 4.388c-0.002 0.015-0.004 0.033-0.004 0.051 0 0.19 0.154 0.343 0.343 0.343 0 0 0 0 0.001 0h1.832v1.174h-0.463c-0.113 0-0.218 0.055-0.282 0.148-0.038 0.055-0.061 0.122-0.061 0.195 0 0.043 0.008 0.085 0.023 0.123l-0.001-0.002c0.182 0.489-0.403 3.063-0.209 3.672h-3.309c-0 0-0 0-0 0-0.19 0-0.343 0.154-0.343 0.343 0 0 0 0 0 0.001v-0 5.671c0 0.183 0.144 0.333 0.324 0.343v0.158c0 0.19 0.154 0.344 0.344 0.344s0.344-0.154 0.344-0.344v0-0.157h17.911v0.157c0 0.19 0.154 0.344 0.344 0.344s0.344-0.154 0.344-0.344v0-0.158c0.182-0.009 0.326-0.159 0.326-0.343 0-0 0-0 0-0v0l-0.001-5.671zM-43.126 40.472h2.75v2.832h-2.75v-2.832zM-48.505 37.307l0.546-3.7h2.464l0.547 3.7h-3.557zM-47.1 39.856h0.746c-0.067 0.545 0.492 3.001 0.216 3.448h-1.178c-0.275-0.447 0.283-2.902 0.216-3.448zM-42.096 48.976h-8.935v-4.984h8.935v4.984zM-41.408 48.976v-4.984h8.938l0.001 4.984h-8.939z"></path>
</svg>
