<!-- Generated by IcoMoon.io -->
<svg version="1.1" xmlns="http://www.w3.org/2000/svg" width="32" height="32" viewBox="0 0 32 32">
<title>gift</title>
<path fill="#3d4a39" d="M6 5.001c0.053-2.721 2.271-4.907 5-4.907s4.947 2.186 5 4.902l0 0.005c0.053-2.721 2.271-4.907 5-4.907s4.947 2.186 5 4.902l0 0.005v0.011c0 0.14 0 0.54-0.076 0.988h4.076c1.105 0 2 0.895 2 2v0 2c0 1.105-0.895 2-2 2v0h-28c-1.105 0-2-0.895-2-2v0-2c0-1.105 0.895-2 2-2v0h4.076c-0.049-0.286-0.077-0.615-0.077-0.95 0-0.013 0-0.027 0-0.040v0.002-0.011zM8.137 6h5.863v-1.001c-0.041-1.626-1.368-2.928-3-2.928s-2.959 1.302-3 2.924l-0 0.004c0 0.171 0.004 0.549 0.089 0.86 0.015 0.055 0.031 0.102 0.051 0.147l-0.003-0.007zM18 6h5.865c0.015-0.038 0.031-0.085 0.043-0.133l0.002-0.008c0.087-0.311 0.091-0.69 0.091-0.859 0-1.657-1.343-3-3-3s-3 1.343-3 3v0 0.999zM30 14v15.001c0 1.656-1.343 2.999-2.999 2.999-0.001 0-0.001 0-0.002 0h-8.999v-18h12zM4.999 32c-1.656 0-2.999-1.343-2.999-2.999 0-0.001 0-0.001 0-0.002v0-14.997h12v17.998h-9.001z"></path>
</svg>
