<!-- Generated by IcoMoon.io -->
<svg version="1.1" xmlns="http://www.w3.org/2000/svg" width="32" height="32" viewBox="0 0 32 32">
<title>instagram</title>
<path fill="#ae7b3c" d="M27.929 11.073c-0.015-1.065-0.219-2.079-0.58-3.014l0.020 0.059c-0.638-1.616-1.893-2.872-3.468-3.496l-0.042-0.015c-0.863-0.334-1.862-0.538-2.905-0.56l-0.009-0c-1.283-0.057-1.689-0.073-4.947-0.073-3.255 0-3.672 0-4.947 0.073-1.052 0.023-2.049 0.226-2.972 0.58l0.060-0.020c-1.617 0.638-2.873 1.894-3.496 3.469l-0.014 0.042c-0.335 0.863-0.538 1.861-0.559 2.905l-0 0.009c-0.057 1.284-0.075 1.691-0.075 4.947s0 3.672 0.075 4.947c0.020 0.997 0.208 1.981 0.559 2.916 0.639 1.616 1.895 2.872 3.47 3.495l0.042 0.015c0.86 0.347 1.856 0.564 2.899 0.6l0.015 0c1.284 0.057 1.691 0.075 4.947 0.075s3.673 0 4.947-0.075c1.052-0.021 2.051-0.224 2.975-0.579l-0.060 0.020c1.616-0.639 2.872-1.894 3.496-3.469l0.015-0.042c0.351-0.933 0.539-1.917 0.559-2.916 0.057-1.283 0.075-1.689 0.075-4.947-0.003-3.256-0.003-3.669-0.077-4.945zM15.992 22.136c-0 0-0.001 0-0.001 0-3.404 0-6.163-2.759-6.163-6.163 0-0 0-0.001 0-0.001v0c0.001-3.403 2.76-6.161 6.163-6.161s6.163 2.759 6.163 6.163c0 3.403-2.758 6.162-6.161 6.163h-0zM22.4 11.017c-0.003 0-0.007 0-0.011 0-0.792 0-1.435-0.642-1.435-1.435 0-0.598 0.366-1.11 0.886-1.326l0.009-0.004c0.162-0.068 0.349-0.108 0.546-0.108 0.793 0 1.436 0.643 1.436 1.436 0 0.792-0.64 1.434-1.431 1.436h-0z"></path>
<path fill="#ae7b3c" d="M15.992 19.976c2.211 0 4.004-1.793 4.004-4.004s-1.793-4.004-4.004-4.004v0c-2.211 0-4.004 1.793-4.004 4.004s1.793 4.004 4.004 4.004v0z"></path>
</svg>
