<!-- Generated by IcoMoon.io -->
<svg version="1.1" xmlns="http://www.w3.org/2000/svg" width="31" height="32" viewBox="0 0 31 32">
<title>oven</title>
<path fill="#fff" d="M24.662 1.72h-18.012c-0.668 0.001-1.21 0.542-1.211 1.21v18.013c0.001 0.668 0.542 1.209 1.21 1.209h0.586v0.916c0 0.181 0.147 0.328 0.329 0.328h2.86c0 0 0 0 0 0 0.181 0 0.328-0.147 0.328-0.328v0-0.916h9.806v0.916c0 0.181 0.147 0.328 0.329 0.328h2.859c0 0 0 0 0 0 0.181 0 0.328-0.147 0.328-0.328v0-0.916h0.586c0.668-0 1.21-0.542 1.211-1.21v-18.013c-0-0.668-0.542-1.21-1.21-1.21h-0zM6.65 2.377h18.012c0.305 0 0.554 0.248 0.554 0.554v3.282h-19.12v-3.282c0-0.305 0.248-0.554 0.554-0.554zM10.096 22.741h-2.203v-0.587h2.203v0.587zM23.419 22.741h-2.203v-0.587h2.203v0.587zM24.662 21.496h-18.012c-0.306 0-0.554-0.248-0.554-0.553v-14.073h19.12v14.073c0 0.305-0.249 0.553-0.554 0.553z"></path>
<path fill="#fff" d="M20.887 5.616c0.729-0.001 1.32-0.592 1.321-1.321v-0c-0.001-0.729-0.592-1.32-1.321-1.321h-0c-0.729 0.001-1.32 0.592-1.321 1.321v0c0.001 0.729 0.592 1.32 1.321 1.321h0zM20.887 3.631c0.366 0 0.664 0.298 0.664 0.664s-0.298 0.664-0.664 0.664c-0.367-0-0.664-0.297-0.664-0.664v-0c0-0.366 0.298-0.664 0.664-0.664zM15.656 5.617c0.729-0.001 1.32-0.592 1.321-1.321v-0c-0.001-0.729-0.591-1.32-1.32-1.321h-0c-0.729 0.001-1.321 0.592-1.321 1.321v0c0.001 0.729 0.592 1.32 1.321 1.321h0zM15.656 3.631c0.366 0 0.664 0.298 0.664 0.664s-0.298 0.664-0.664 0.664c-0.367-0.001-0.663-0.298-0.664-0.664v-0c0-0.366 0.298-0.664 0.664-0.664zM10.424 5.617c0.729-0.001 1.32-0.592 1.321-1.321v-0c-0.001-0.729-0.592-1.32-1.32-1.321h-0c-0.729 0.001-1.32 0.592-1.321 1.321v0c0.001 0.729 0.592 1.32 1.321 1.321h0zM10.424 3.631c0.366 0 0.664 0.298 0.664 0.664s-0.298 0.664-0.664 0.664c-0.367-0.001-0.663-0.298-0.664-0.664v-0c0-0.366 0.298-0.664 0.664-0.664zM22.831 11.020h-14.349c-0.181 0-0.329 0.147-0.329 0.329v0 7.996c0 0.182 0.147 0.329 0.329 0.329h14.349c0 0 0 0 0 0 0.181 0 0.329-0.147 0.329-0.329v0-7.996c-0-0.182-0.147-0.329-0.329-0.329v0zM22.503 19.016h-13.693v-7.339h13.693v7.339z"></path>
</svg>
