<!-- Generated by IcoMoon.io -->
<svg version="1.1" xmlns="http://www.w3.org/2000/svg" width="16" height="32" viewBox="0 0 16 32">
<title>semicircle-right</title>
<path fill="#ae7b3c" d="M3.78 30.527c0.372 0 0.704-0.063 0.996-0.187s0.541-0.302 0.742-0.523l0.002-0.002c0.202-0.225 0.356-0.493 0.463-0.805s0.159-0.655 0.159-1.030v-5.437h1.209v5.437c0 0.516-0.081 0.994-0.246 1.436-0.165 0.444-0.405 0.825-0.709 1.145l0.001-0.002c-0.31 0.322-0.685 0.579-1.104 0.751l-0.022 0.008c-0.442 0.183-0.94 0.275-1.491 0.275s-1.048-0.092-1.491-0.275c-0.441-0.18-0.816-0.438-1.126-0.758l-0.001-0.001c-0.303-0.319-0.545-0.699-0.702-1.121l-0.007-0.023c-0.158-0.417-0.249-0.898-0.249-1.401 0-0.012 0-0.024 0-0.036v0.002-5.437h1.209v5.431c0 0.374 0.055 0.718 0.161 1.030s0.262 0.581 0.463 0.805c0.204 0.225 0.451 0.4 0.745 0.527s0.627 0.191 0.999 0.191zM13.948 26.463h0.458c0.010 0 0.022 0.001 0.034 0.001 0.124 0 0.244-0.022 0.354-0.063l-0.007 0.002c0.106-0.046 0.194-0.115 0.263-0.2l0.001-0.001 2.988-3.371c0.068-0.095 0.157-0.171 0.259-0.223l0.004-0.002c0.092-0.041 0.204-0.062 0.338-0.062h1.028l-3.42 3.851c-0.074 0.090-0.152 0.17-0.237 0.243l-0.003 0.002c-0.078 0.065-0.161 0.119-0.249 0.16 0.113 0.037 0.215 0.092 0.307 0.164s0.182 0.168 0.269 0.285l3.571 4.238h-1.052c-0.079 0-0.145-0.007-0.203-0.017-0.056-0.009-0.105-0.027-0.151-0.051l0.003 0.001c-0.042-0.023-0.078-0.050-0.109-0.081l0 0c-0.033-0.033-0.063-0.068-0.090-0.106l-0.002-0.003-3.094-3.551c-0.071-0.093-0.161-0.169-0.265-0.221l-0.004-0.002c-0.096-0.044-0.242-0.065-0.438-0.065h-0.551v4.095h-1.209v-8.944h1.209v3.92h-0.001zM26.734 26.876c0.351 0 0.662-0.044 0.931-0.129s0.495-0.206 0.676-0.362 0.318-0.342 0.409-0.558c0.092-0.217 0.138-0.456 0.138-0.718 0-0.532-0.175-0.934-0.526-1.204s-0.877-0.406-1.578-0.406h-1.329v3.377l1.278-0.001zM30.881 31.489h-1.077c-0.222 0-0.385-0.086-0.489-0.256l-2.331-3.196c-0.059-0.089-0.135-0.162-0.224-0.215l-0.003-0.002c-0.081-0.044-0.209-0.065-0.38-0.065h-0.921v3.733h-1.209v-8.945h2.537c0.567 0 1.059 0.056 1.472 0.171 0.415 0.114 0.756 0.281 1.025 0.497s0.468 0.476 0.597 0.782c0.129 0.306 0.194 0.649 0.194 1.028 0 0.316-0.050 0.611-0.15 0.886-0.105 0.285-0.252 0.53-0.437 0.741l0.002-0.003c-0.19 0.219-0.422 0.406-0.695 0.56-0.268 0.151-0.579 0.272-0.908 0.345l-0.023 0.004c0.154 0.087 0.288 0.215 0.4 0.381l2.619 3.551zM39.651 28.167l-1.409-3.639c-0.086-0.217-0.176-0.495-0.251-0.78l-0.012-0.056c-0.087 0.337-0.178 0.618-0.269 0.842l-1.409 3.633h3.351zM42.182 31.488h-0.94c-0.006 0-0.013 0-0.019 0-0.092 0-0.177-0.030-0.245-0.082l0.001 0.001c-0.066-0.054-0.118-0.123-0.149-0.202l-0.001-0.003-0.839-2.16h-4.029l-0.839 2.16c-0.029 0.081-0.079 0.148-0.142 0.199l-0.001 0.001c-0.068 0.055-0.156 0.087-0.251 0.087-0.005 0-0.009-0-0.014-0l0.001 0h-0.939l3.589-8.944h1.228l3.59 8.944zM47.369 31.489h-1.215v-8.945h1.215v8.945zM60.143 22.544v8.944h-0.608c-0.005 0-0.011 0-0.018 0-0.081 0-0.157-0.019-0.225-0.052l0.003 0.001c-0.077-0.043-0.14-0.1-0.191-0.167l-0.001-0.002-5.193-6.741c0.015 0.174 0.024 0.379 0.025 0.585v6.375h-1.065v-8.944h0.627c0.054 0 0.1 0.001 0.138 0.008 0.074 0.012 0.138 0.046 0.188 0.095l-0-0c0.029 0.027 0.060 0.062 0.095 0.103l5.193 6.735c-0.008-0.108-0.015-0.214-0.020-0.316-0.006-0.085-0.010-0.186-0.011-0.287v-6.338h1.065zM69.991 28.167l-1.409-3.639c-0.086-0.217-0.176-0.495-0.251-0.78l-0.012-0.056c-0.088 0.337-0.178 0.618-0.269 0.842l-1.41 3.633h3.352zM72.522 31.488h-0.94c-0.006 0-0.013 0-0.019 0-0.092 0-0.177-0.030-0.245-0.082l0.001 0.001c-0.066-0.054-0.118-0.123-0.149-0.202l-0.001-0.003-0.839-2.16h-4.029l-0.839 2.16c-0.030 0.081-0.079 0.148-0.143 0.199l-0.001 0.001c-0.068 0.055-0.156 0.087-0.251 0.087-0.004 0-0.009-0-0.013-0l0.001 0h-0.94l3.59-8.944h1.228l3.59 8.944z"></path>
</svg>
