<svg aria-hidden="true" style="position: absolute; width: 0; height: 0; overflow: hidden;" version="1.1" xmlns="http://www.w3.org/2000/svg" xmlns:xlink="http://www.w3.org/1999/xlink">
<defs>
<symbol id="logo" viewBox="0 0 73 32">
<path fill="#3d4a39" style="fill: var(--color1, #3d4a39)" d="M63.596 1.167c2.449 0 4.548 0.875 6.3 2.618 1.753 1.746 2.628 3.841 2.628 6.292 0 2.455-0.874 4.547-2.628 6.278-0.227 0.225-0.465 0.439-0.714 0.642l-0.018 0.014c-4.125-2.131-8.482-3.15-8.572-6.931 0.759 1.518 1.196 2.354 2.829 3.171 0.131-0.195 0.269-0.429 0.408-0.614 0.701-0.931 0.848-0.572 2.421-0.916 1.321-0.29 1.622-0.876 1.716-2.351-1.201-1.026-0.855-0.318-1.596-1.989-0.455-1.027-0.838-1.111-2.045-1.369l0.124-2.029c-2.711 0.64-4.603 2.919-5.553 5.441-1.185 3.15-0.823 5.276-0.228 8.061-0.515-0.349-0.965-0.721-1.377-1.131l0.001 0.001c-1.742-1.74-2.616-3.831-2.616-6.278 0-2.444 0.874-4.538 2.616-6.292 1.753-1.743 3.852-2.618 6.304-2.618h0.001z"></path>
<path fill="#3d4a39" style="fill: var(--color1, #3d4a39)" d="M65.561 5.498l0.155-0.372c0.655 0.271 1.252 0.677 1.794 1.217 0.547 0.544 0.957 1.143 1.231 1.795 0.26 0.612 0.41 1.323 0.41 2.070 0 0.017-0 0.034-0 0.051l0-0.003c0 0.765-0.137 1.475-0.411 2.128-0.302 0.696-0.717 1.288-1.23 1.781l-0.002 0.002c-0.501 0.503-1.097 0.91-1.759 1.193l-0.036 0.014c-0.655 0.271-1.36 0.404-2.116 0.404-0.768 0-1.48-0.134-2.137-0.403-0.698-0.295-1.293-0.703-1.791-1.209l-0.001-0.001c-0.509-0.498-0.922-1.092-1.208-1.753l-0.014-0.036c-0.259-0.613-0.409-1.325-0.409-2.072 0-0.017 0-0.034 0-0.051l-0 0.003c0-0.754 0.137-1.458 0.409-2.112 0.272-0.652 0.679-1.253 1.22-1.8 0.496-0.51 1.089-0.921 1.751-1.205l0.035-0.013 0.155 0.372c-0.645 0.275-1.194 0.656-1.652 1.126l-0.001 0.001c-0.505 0.511-0.883 1.068-1.135 1.673-0.239 0.566-0.378 1.224-0.378 1.915 0 0.015 0 0.030 0 0.045l-0-0.002c0 0.708 0.126 1.363 0.378 1.966 0.251 0.603 0.629 1.156 1.133 1.659 0.461 0.47 1.012 0.849 1.625 1.11l0.033 0.012c0.606 0.248 1.266 0.372 1.983 0.372 0.705 0 1.36-0.124 1.964-0.372 0.647-0.276 1.2-0.655 1.664-1.122l0-0h0.001c0.477-0.458 0.862-1.006 1.129-1.618l0.013-0.032c0.252-0.604 0.379-1.261 0.379-1.974 0-0.706-0.126-1.361-0.378-1.964-0.254-0.604-0.634-1.159-1.144-1.665-0.505-0.503-1.059-0.88-1.663-1.129h0.001zM63.597 1.167c1.25 0 2.412 0.224 3.488 0.671s2.060 1.116 2.955 2.006c0.895 0.892 1.567 1.874 2.015 2.947 0.449 1.074 0.673 2.236 0.673 3.488 0 1.253-0.224 2.415-0.672 3.487-0.448 1.071-1.12 2.048-2.015 2.933-0.892 0.88-1.875 1.541-2.95 1.982s-2.24 0.662-3.494 0.662c-1.259-0.004-2.427-0.226-3.503-0.668s-2.057-1.099-2.944-1.976c-0.89-0.889-1.559-1.868-2.005-2.938s-0.671-2.232-0.671-3.481c0-1.248 0.225-2.408 0.671-3.482 0.447-1.072 1.115-2.056 2.004-2.952h0.001c0.895-0.89 1.88-1.559 2.955-2.007s2.24-0.671 3.492-0.671v-0.001zM66.93 2.209c-1.025-0.426-2.135-0.64-3.334-0.64-1.2 0-2.311 0.213-3.337 0.64s-1.967 1.066-2.825 1.919c-0.851 0.858-1.491 1.799-1.917 2.823s-0.639 2.132-0.639 3.328c0 1.197 0.214 2.306 0.639 3.327 0.426 1.022 1.065 1.958 1.917 2.808 0.85 0.839 1.788 1.469 2.813 1.889 1.027 0.421 2.143 0.633 3.348 0.636v-0.001c1.202 0 2.316-0.211 3.34-0.63 1.025-0.42 1.964-1.052 2.817-1.895 0.858-0.847 1.5-1.781 1.927-2.803 0.427-1.020 0.64-2.131 0.64-3.332 0-1.199-0.213-2.311-0.64-3.333s-1.069-1.962-1.927-2.817v-0.001c-0.857-0.852-1.799-1.492-2.824-1.919v0.001z"></path>
<path fill="#ddd5c1" style="fill: var(--color2, #ddd5c1)" d="M61.591 5.455l0.018 0.044c-0.086 0.034-0.131 0.054-0.176 0.075l0.039-0.016c-1.158 1.026-2.024 2.406-2.575 3.866-0.138 0.345-0.285 0.794-0.409 1.251l-0.022 0.094c0.047 0.514 0.165 0.999 0.354 1.453 0.252 0.603 0.63 1.156 1.135 1.659 0.461 0.47 1.012 0.849 1.625 1.11l0.033 0.012c0.605 0.248 1.265 0.372 1.983 0.372 0.011 0 0.023 0 0.036 0 0.557 0 1.094-0.087 1.598-0.249l-0.037 0.010c-2.551-1.222-4.538-2.516-4.599-5.057 0.759 1.518 1.196 2.353 2.83 3.171 0.13-0.196 0.269-0.431 0.407-0.614 0.702-0.931 0.849-0.572 2.422-0.916 1.321-0.29 1.622-0.876 1.716-2.351-1.201-1.026-0.855-0.318-1.596-1.989-0.455-1.027-0.838-1.111-2.045-1.369l0.123-2.029c-1.088 0.257-2.044 0.778-2.86 1.472z"></path>
<path fill="#ae7b3c" style="fill: var(--color3, #ae7b3c)" d="M65.705 15.378c-0.61 0.254-1.319 0.401-2.062 0.401-0.016 0-0.033-0-0.049-0l0.002 0c-0.767 0-1.48-0.135-2.137-0.403-0.698-0.295-1.293-0.704-1.79-1.209l-0.001-0.001-0.001 0.001c-0.509-0.498-0.922-1.092-1.208-1.753l-0.014-0.036c-0.078-0.188-0.145-0.379-0.2-0.575-0.318 1.961-0.015 3.628 0.412 5.633 0.504 0.351 1.033 0.64 1.589 0.868 1.027 0.422 2.144 0.633 3.349 0.637v-0.001c1.202 0 2.316-0.21 3.34-0.63 0.837-0.35 1.558-0.794 2.198-1.332l-0.013 0.011c-1.155-0.594-2.327-1.103-3.417-1.61z"></path>
<path fill="#3d4a39" style="fill: var(--color1, #3d4a39)" d="M44.918 1.2c2.441 0 4.544 0.863 6.311 2.595l-2.519 2.511c-1.068-1.049-2.326-1.576-3.769-1.576-1.478 0-2.735 0.527-3.774 1.576-1.046 1.041-1.571 2.298-1.571 3.771 0 1.468 0.525 2.725 1.571 3.767 1.031 1.041 2.289 1.564 3.774 1.564 1.091 0 2.080-0.303 2.974-0.912 0.797-0.536 1.427-1.264 1.832-2.119l0.014-0.032h-5.017v-3.356h9.028c0.231 2.988-0.621 5.444-2.564 7.364-1.753 1.732-3.852 2.596-6.3 2.596-2.471 0-4.569-0.864-6.293-2.596-1.742-1.724-2.616-3.815-2.616-6.277 0-2.444 0.874-4.539 2.616-6.292 1.731-1.743 3.83-2.618 6.293-2.618l0.012 0.033h-0.001z"></path>
<path fill="#3d4a39" style="fill: var(--color1, #3d4a39)" d="M45.063 0.999c1.191 0.017 2.305 0.237 3.34 0.663 1.076 0.442 2.065 1.105 2.968 1.99l0.145 0.142-2.805 2.795-0.143-0.14c-0.516-0.506-1.076-0.887-1.681-1.14-0.564-0.239-1.219-0.378-1.907-0.378-0.014 0-0.028 0-0.043 0h0.002c-0.711 0-1.369 0.126-1.972 0.378-0.647 0.279-1.197 0.663-1.657 1.136l-0.001 0.001v0.001c-0.505 0.503-0.883 1.056-1.135 1.66-0.238 0.567-0.377 1.227-0.377 1.919 0 0.018 0 0.035 0 0.052l-0-0.003c0 0.708 0.126 1.363 0.377 1.966s0.63 1.156 1.134 1.658v0.002c0.458 0.472 1.007 0.853 1.618 1.116l0.033 0.012c0.604 0.249 1.263 0.375 1.979 0.375 0.527 0 1.027-0.073 1.502-0.218 0.517-0.163 0.968-0.387 1.374-0.67l-0.017 0.011h0.001c0.394-0.266 0.734-0.569 1.030-0.911l0.005-0.006c0.228-0.265 0.426-0.553 0.596-0.865h-4.891v-3.759h9.418l0.015 0.186c0.117 1.521-0.041 2.909-0.479 4.163-0.438 1.257-1.152 2.377-2.145 3.359-0.895 0.884-1.88 1.548-2.954 1.99-1.076 0.444-2.238 0.665-3.488 0.665-1.262 0-2.431-0.221-3.505-0.665-1.073-0.444-2.051-1.106-2.931-1.991-0.889-0.881-1.558-1.857-2.004-2.927s-0.671-2.235-0.671-3.492c0-1.248 0.224-2.409 0.671-3.482 0.447-1.072 1.115-2.056 2.005-2.953 0.884-0.89 1.864-1.56 2.938-2.007s2.24-0.671 3.498-0.671h0.145l0.011 0.035zM48.249 2.034c-1.026-0.422-2.137-0.633-3.331-0.633h-0.145l-0.011-0.033c-1.149 0.017-2.215 0.229-3.198 0.638-1.025 0.427-1.961 1.067-2.807 1.919-0.852 0.858-1.492 1.799-1.919 2.823-0.425 1.023-0.639 2.132-0.639 3.327 0 1.205 0.213 2.318 0.639 3.338s1.065 1.953 1.917 2.797c0.843 0.847 1.776 1.481 2.799 1.903 1.024 0.422 2.142 0.633 3.352 0.633 1.199 0 2.31-0.21 3.335-0.633s1.967-1.056 2.824-1.903c0.949-0.939 1.632-2.007 2.049-3.204 0.4-1.149 0.556-2.422 0.469-3.815h-8.637v2.952h5.132l-0.135 0.287c-0.434 0.921-1.088 1.677-1.896 2.22l-0.019 0.012c-0.421 0.293-0.908 0.534-1.428 0.699l-0.038 0.011c-0.478 0.151-1.028 0.238-1.598 0.238-0.008 0-0.015-0-0.023-0h0.001c-0.768 0-1.479-0.136-2.133-0.407-0.696-0.297-1.288-0.708-1.782-1.216l-0.001-0.001c-0.509-0.498-0.922-1.092-1.208-1.753l-0.014-0.036c-0.259-0.613-0.409-1.325-0.409-2.072 0-0.017 0-0.034 0-0.051l-0 0.003c0-0.762 0.137-1.469 0.409-2.124s0.68-1.251 1.222-1.79c0.538-0.543 1.135-0.953 1.787-1.225 0.655-0.273 1.364-0.41 2.129-0.41 0.011-0 0.025-0 0.039-0 0.745 0 1.455 0.151 2.101 0.424l-0.035-0.013c0.642 0.277 1.192 0.642 1.665 1.088l-0.003-0.003 2.234-2.226c-0.825-0.777-1.721-1.365-2.691-1.764zM30.929 10.989v-9.724h3.542v17.913l-10.598-10.059v9.722h-3.532v-17.903l10.588 10.049z"></path>
<path fill="#3d4a39" style="fill: var(--color1, #3d4a39)" d="M30.524 10.049v-9.185h4.353v19.257l-10.6-10.060v9.185h-4.342v-19.246l10.588 10.049zM31.334 1.671v10.258l-10.588-10.048v16.558h2.722v-10.259l10.598 10.060v-16.57h-2.732zM14.628 1.308h3.532v17.513h-3.532v-17.513z"></path>
<path fill="#3d4a39" style="fill: var(--color1, #3d4a39)" d="M14.628 1.105h3.735v17.916h-3.937v-17.916h0.203zM17.957 1.509h-3.127v17.109h3.127v-17.109zM6.276 9.639c0.64 0 1.187-0.241 1.645-0.727 0.451-0.485 0.678-1.064 0.678-1.738 0-0.639-0.234-1.198-0.7-1.684-0.48-0.463-1.205-0.693-2.18-0.693h-1.984v4.831h1.362v0.011h1.18zM0.204 1.308h5.735c1.86 0 3.394 0.593 4.6 1.783 0.591 0.585 1.008 1.138 1.254 1.661 0.298 0.638 0.447 1.409 0.447 2.314v0.456c0 1.179-0.369 2.291-1.109 3.337-0.532 0.738-1.236 1.276-2.106 1.617l4.090 6.345h-4.317l-5.050-7.745v7.745h-3.543v-17.513z"></path>
<path fill="#3d4a39" style="fill: var(--color1, #3d4a39)" d="M6.276 9.438c0.006 0 0.013 0 0.020 0 0.286 0 0.557-0.061 0.802-0.169l-0.013 0.005c0.248-0.109 0.477-0.275 0.687-0.497 0.208-0.225 0.364-0.47 0.468-0.735 0.103-0.266 0.156-0.555 0.156-0.868 0-0.293-0.054-0.567-0.16-0.822-0.121-0.279-0.283-0.518-0.481-0.721l0 0c-0.226-0.212-0.502-0.374-0.807-0.467l-0.015-0.004c-0.342-0.109-0.747-0.162-1.216-0.162h-1.78v4.428h1.361v0.012h0.977zM7.249 9.642c-0.28 0.126-0.607 0.199-0.951 0.199-0.007 0-0.014-0-0.022-0h-1.381v-0.012h-1.362v-5.235h2.186c0.507 0 0.953 0.061 1.337 0.183 0.394 0.126 0.722 0.314 0.985 0.568l0.005 0.005c0.25 0.261 0.439 0.543 0.565 0.847 0.127 0.305 0.191 0.631 0.191 0.976 0 0.361-0.061 0.699-0.184 1.013s-0.305 0.601-0.547 0.863l-0.001 0.001c-0.247 0.263-0.521 0.46-0.82 0.592zM0.204 1.105h5.735c0.954 0 1.828 0.153 2.618 0.46 0.828 0.327 1.535 0.796 2.124 1.383l-0-0c0.302 0.3 0.56 0.591 0.776 0.877 0.217 0.287 0.391 0.568 0.519 0.842 0.156 0.335 0.273 0.702 0.351 1.103 0.074 0.378 0.116 0.812 0.116 1.257 0 0.014-0 0.027-0 0.041v-0.002 0.456c0 0.611-0.097 1.205-0.287 1.782-0.219 0.638-0.51 1.191-0.872 1.69l0.013-0.019-0.002 0.001c-0.276 0.382-0.594 0.711-0.954 0.99l-0.011 0.008c-0.291 0.224-0.622 0.423-0.975 0.582l-0.031 0.013 4.16 6.454h-4.796l-4.738-7.269v7.268h-3.949v-17.916h0.204zM5.939 1.509h-5.534v17.109h3.138v-8.224l5.362 8.224h3.838l-4.023-6.24 0.23-0.090c0.433-0.17 0.806-0.383 1.143-0.641l-0.011 0.008c0.335-0.257 0.629-0.561 0.883-0.912h-0.001c0.327-0.45 0.6-0.968 0.792-1.524l0.013-0.042c0.169-0.492 0.267-1.059 0.267-1.648 0-0.003 0-0.005 0-0.008v0-0.455c0-0.441-0.036-0.847-0.108-1.22-0.072-0.381-0.183-0.72-0.331-1.037l0.011 0.026c-0.143-0.293-0.301-0.546-0.482-0.779l0.007 0.010c-0.202-0.269-0.448-0.545-0.737-0.833-0.55-0.549-1.211-0.988-1.946-1.279l-0.039-0.014c-0.742-0.287-1.566-0.431-2.473-0.431z"></path>
<path fill="#ae7b3c" style="fill: var(--color3, #ae7b3c)" d="M3.78 30.527c0.372 0 0.704-0.063 0.996-0.187s0.541-0.302 0.742-0.523l0.002-0.002c0.202-0.225 0.356-0.493 0.463-0.805s0.159-0.655 0.159-1.030v-5.437h1.209v5.437c0 0.516-0.081 0.994-0.246 1.436-0.165 0.444-0.405 0.825-0.709 1.145l0.001-0.002c-0.31 0.322-0.685 0.579-1.104 0.751l-0.022 0.008c-0.442 0.183-0.94 0.275-1.491 0.275s-1.048-0.092-1.491-0.275c-0.441-0.18-0.816-0.438-1.126-0.758l-0.001-0.001c-0.303-0.319-0.545-0.699-0.702-1.121l-0.007-0.023c-0.158-0.417-0.249-0.898-0.249-1.401 0-0.012 0-0.024 0-0.036v0.002-5.437h1.209v5.431c0 0.374 0.055 0.718 0.161 1.030s0.262 0.581 0.463 0.805c0.204 0.225 0.451 0.4 0.745 0.527s0.627 0.191 0.999 0.191zM13.948 26.463h0.458c0.010 0 0.022 0.001 0.034 0.001 0.124 0 0.244-0.022 0.354-0.063l-0.007 0.002c0.106-0.046 0.194-0.115 0.263-0.2l0.001-0.001 2.988-3.371c0.068-0.095 0.157-0.171 0.259-0.223l0.004-0.002c0.092-0.041 0.204-0.062 0.338-0.062h1.028l-3.42 3.851c-0.074 0.090-0.152 0.17-0.237 0.243l-0.003 0.002c-0.078 0.065-0.161 0.119-0.249 0.16 0.113 0.037 0.215 0.092 0.307 0.164s0.182 0.168 0.269 0.285l3.571 4.238h-1.052c-0.079 0-0.145-0.007-0.203-0.017-0.056-0.009-0.105-0.027-0.151-0.051l0.003 0.001c-0.042-0.023-0.078-0.050-0.109-0.081l0 0c-0.033-0.033-0.063-0.068-0.090-0.106l-0.002-0.003-3.094-3.551c-0.071-0.093-0.161-0.169-0.265-0.221l-0.004-0.002c-0.096-0.044-0.242-0.065-0.438-0.065h-0.551v4.095h-1.209v-8.944h1.209v3.92h-0.001zM26.734 26.876c0.351 0 0.662-0.044 0.931-0.129s0.495-0.206 0.676-0.362 0.318-0.342 0.409-0.558c0.092-0.217 0.138-0.456 0.138-0.718 0-0.532-0.175-0.934-0.526-1.204s-0.877-0.406-1.578-0.406h-1.329v3.377l1.278-0.001zM30.881 31.489h-1.077c-0.222 0-0.385-0.086-0.489-0.256l-2.331-3.196c-0.059-0.089-0.135-0.162-0.224-0.215l-0.003-0.002c-0.081-0.044-0.209-0.065-0.38-0.065h-0.921v3.733h-1.209v-8.945h2.537c0.567 0 1.059 0.056 1.472 0.171 0.415 0.114 0.756 0.281 1.025 0.497s0.468 0.476 0.597 0.782c0.129 0.306 0.194 0.649 0.194 1.028 0 0.316-0.050 0.611-0.15 0.886-0.105 0.285-0.252 0.53-0.437 0.741l0.002-0.003c-0.19 0.219-0.422 0.406-0.695 0.56-0.268 0.151-0.579 0.272-0.908 0.345l-0.023 0.004c0.154 0.087 0.288 0.215 0.4 0.381l2.619 3.551zM39.651 28.167l-1.409-3.639c-0.086-0.217-0.176-0.495-0.251-0.78l-0.012-0.056c-0.087 0.337-0.178 0.618-0.269 0.842l-1.409 3.633h3.351zM42.182 31.488h-0.94c-0.006 0-0.013 0-0.019 0-0.092 0-0.177-0.030-0.245-0.082l0.001 0.001c-0.066-0.054-0.118-0.123-0.149-0.202l-0.001-0.003-0.839-2.16h-4.029l-0.839 2.16c-0.029 0.081-0.079 0.148-0.142 0.199l-0.001 0.001c-0.068 0.055-0.156 0.087-0.251 0.087-0.005 0-0.009-0-0.014-0l0.001 0h-0.939l3.589-8.944h1.228l3.59 8.944zM47.369 31.489h-1.215v-8.945h1.215v8.945zM60.143 22.544v8.944h-0.608c-0.005 0-0.011 0-0.018 0-0.081 0-0.157-0.019-0.225-0.052l0.003 0.001c-0.077-0.043-0.14-0.1-0.191-0.167l-0.001-0.002-5.193-6.741c0.015 0.174 0.024 0.379 0.025 0.585v6.375h-1.065v-8.944h0.627c0.054 0 0.1 0.001 0.138 0.008 0.074 0.012 0.138 0.046 0.188 0.095l-0-0c0.029 0.027 0.060 0.062 0.095 0.103l5.193 6.735c-0.008-0.108-0.015-0.214-0.020-0.316-0.006-0.085-0.010-0.186-0.011-0.287v-6.338h1.065zM69.991 28.167l-1.409-3.639c-0.086-0.217-0.176-0.495-0.251-0.78l-0.012-0.056c-0.088 0.337-0.178 0.618-0.269 0.842l-1.41 3.633h3.352zM72.522 31.488h-0.94c-0.006 0-0.013 0-0.019 0-0.092 0-0.177-0.030-0.245-0.082l0.001 0.001c-0.066-0.054-0.118-0.123-0.149-0.202l-0.001-0.003-0.839-2.16h-4.029l-0.839 2.16c-0.030 0.081-0.079 0.148-0.143 0.199l-0.001 0.001c-0.068 0.055-0.156 0.087-0.251 0.087-0.004 0-0.009-0-0.013-0l0.001 0h-0.94l3.59-8.944h1.228l3.59 8.944z"></path>
</symbol>
<symbol id="burger" viewBox="0 0 45 32">
<path stroke-linejoin="round" stroke-linecap="round" stroke-miterlimit="4" stroke-width="3.2" d="M2 16h40.8M2 2.4h40.8M2 29.6h40.8"></path>
</symbol>
<symbol id="semicircle-right" viewBox="0 0 16 32">
<path fill="#ae7b3c" style="fill: var(--color3, #ae7b3c)" d="M3.78 30.527c0.372 0 0.704-0.063 0.996-0.187s0.541-0.302 0.742-0.523l0.002-0.002c0.202-0.225 0.356-0.493 0.463-0.805s0.159-0.655 0.159-1.030v-5.437h1.209v5.437c0 0.516-0.081 0.994-0.246 1.436-0.165 0.444-0.405 0.825-0.709 1.145l0.001-0.002c-0.31 0.322-0.685 0.579-1.104 0.751l-0.022 0.008c-0.442 0.183-0.94 0.275-1.491 0.275s-1.048-0.092-1.491-0.275c-0.441-0.18-0.816-0.438-1.126-0.758l-0.001-0.001c-0.303-0.319-0.545-0.699-0.702-1.121l-0.007-0.023c-0.158-0.417-0.249-0.898-0.249-1.401 0-0.012 0-0.024 0-0.036v0.002-5.437h1.209v5.431c0 0.374 0.055 0.718 0.161 1.030s0.262 0.581 0.463 0.805c0.204 0.225 0.451 0.4 0.745 0.527s0.627 0.191 0.999 0.191zM13.948 26.463h0.458c0.010 0 0.022 0.001 0.034 0.001 0.124 0 0.244-0.022 0.354-0.063l-0.007 0.002c0.106-0.046 0.194-0.115 0.263-0.2l0.001-0.001 2.988-3.371c0.068-0.095 0.157-0.171 0.259-0.223l0.004-0.002c0.092-0.041 0.204-0.062 0.338-0.062h1.028l-3.42 3.851c-0.074 0.090-0.152 0.17-0.237 0.243l-0.003 0.002c-0.078 0.065-0.161 0.119-0.249 0.16 0.113 0.037 0.215 0.092 0.307 0.164s0.182 0.168 0.269 0.285l3.571 4.238h-1.052c-0.079 0-0.145-0.007-0.203-0.017-0.056-0.009-0.105-0.027-0.151-0.051l0.003 0.001c-0.042-0.023-0.078-0.050-0.109-0.081l0 0c-0.033-0.033-0.063-0.068-0.090-0.106l-0.002-0.003-3.094-3.551c-0.071-0.093-0.161-0.169-0.265-0.221l-0.004-0.002c-0.096-0.044-0.242-0.065-0.438-0.065h-0.551v4.095h-1.209v-8.944h1.209v3.92h-0.001zM26.734 26.876c0.351 0 0.662-0.044 0.931-0.129s0.495-0.206 0.676-0.362 0.318-0.342 0.409-0.558c0.092-0.217 0.138-0.456 0.138-0.718 0-0.532-0.175-0.934-0.526-1.204s-0.877-0.406-1.578-0.406h-1.329v3.377l1.278-0.001zM30.881 31.489h-1.077c-0.222 0-0.385-0.086-0.489-0.256l-2.331-3.196c-0.059-0.089-0.135-0.162-0.224-0.215l-0.003-0.002c-0.081-0.044-0.209-0.065-0.38-0.065h-0.921v3.733h-1.209v-8.945h2.537c0.567 0 1.059 0.056 1.472 0.171 0.415 0.114 0.756 0.281 1.025 0.497s0.468 0.476 0.597 0.782c0.129 0.306 0.194 0.649 0.194 1.028 0 0.316-0.050 0.611-0.15 0.886-0.105 0.285-0.252 0.53-0.437 0.741l0.002-0.003c-0.19 0.219-0.422 0.406-0.695 0.56-0.268 0.151-0.579 0.272-0.908 0.345l-0.023 0.004c0.154 0.087 0.288 0.215 0.4 0.381l2.619 3.551zM39.651 28.167l-1.409-3.639c-0.086-0.217-0.176-0.495-0.251-0.78l-0.012-0.056c-0.087 0.337-0.178 0.618-0.269 0.842l-1.409 3.633h3.351zM42.182 31.488h-0.94c-0.006 0-0.013 0-0.019 0-0.092 0-0.177-0.030-0.245-0.082l0.001 0.001c-0.066-0.054-0.118-0.123-0.149-0.202l-0.001-0.003-0.839-2.16h-4.029l-0.839 2.16c-0.029 0.081-0.079 0.148-0.142 0.199l-0.001 0.001c-0.068 0.055-0.156 0.087-0.251 0.087-0.005 0-0.009-0-0.014-0l0.001 0h-0.939l3.589-8.944h1.228l3.59 8.944zM47.369 31.489h-1.215v-8.945h1.215v8.945zM60.143 22.544v8.944h-0.608c-0.005 0-0.011 0-0.018 0-0.081 0-0.157-0.019-0.225-0.052l0.003 0.001c-0.077-0.043-0.14-0.1-0.191-0.167l-0.001-0.002-5.193-6.741c0.015 0.174 0.024 0.379 0.025 0.585v6.375h-1.065v-8.944h0.627c0.054 0 0.1 0.001 0.138 0.008 0.074 0.012 0.138 0.046 0.188 0.095l-0-0c0.029 0.027 0.060 0.062 0.095 0.103l5.193 6.735c-0.008-0.108-0.015-0.214-0.020-0.316-0.006-0.085-0.010-0.186-0.011-0.287v-6.338h1.065zM69.991 28.167l-1.409-3.639c-0.086-0.217-0.176-0.495-0.251-0.78l-0.012-0.056c-0.088 0.337-0.178 0.618-0.269 0.842l-1.41 3.633h3.352zM72.522 31.488h-0.94c-0.006 0-0.013 0-0.019 0-0.092 0-0.177-0.030-0.245-0.082l0.001 0.001c-0.066-0.054-0.118-0.123-0.149-0.202l-0.001-0.003-0.839-2.16h-4.029l-0.839 2.16c-0.030 0.081-0.079 0.148-0.143 0.199l-0.001 0.001c-0.068 0.055-0.156 0.087-0.251 0.087-0.004 0-0.009-0-0.013-0l0.001 0h-0.94l3.59-8.944h1.228l3.59 8.944z"></path>
</symbol>
<symbol id="semicircle-left" viewBox="0 0 16 32">
<path fill="#ae7b3c" style="fill: var(--color3, #ae7b3c)" d="M3.78 30.527c0.372 0 0.704-0.063 0.996-0.187s0.541-0.302 0.742-0.523l0.002-0.002c0.202-0.225 0.356-0.493 0.463-0.805s0.159-0.655 0.159-1.030v-5.437h1.209v5.437c0 0.516-0.081 0.994-0.246 1.436-0.165 0.444-0.405 0.825-0.709 1.145l0.001-0.002c-0.31 0.322-0.685 0.579-1.104 0.751l-0.022 0.008c-0.442 0.183-0.94 0.275-1.491 0.275s-1.048-0.092-1.491-0.275c-0.441-0.18-0.816-0.438-1.126-0.758l-0.001-0.001c-0.303-0.319-0.545-0.699-0.702-1.121l-0.007-0.023c-0.158-0.417-0.249-0.898-0.249-1.401 0-0.012 0-0.024 0-0.036v0.002-5.437h1.209v5.431c0 0.374 0.055 0.718 0.161 1.030s0.262 0.581 0.463 0.805c0.204 0.225 0.451 0.4 0.745 0.527s0.627 0.191 0.999 0.191zM13.948 26.463h0.458c0.010 0 0.022 0.001 0.034 0.001 0.124 0 0.244-0.022 0.354-0.063l-0.007 0.002c0.106-0.046 0.194-0.115 0.263-0.2l0.001-0.001 2.988-3.371c0.068-0.095 0.157-0.171 0.259-0.223l0.004-0.002c0.092-0.041 0.204-0.062 0.338-0.062h1.028l-3.42 3.851c-0.074 0.090-0.152 0.17-0.237 0.243l-0.003 0.002c-0.078 0.065-0.161 0.119-0.249 0.16 0.113 0.037 0.215 0.092 0.307 0.164s0.182 0.168 0.269 0.285l3.571 4.238h-1.052c-0.079 0-0.145-0.007-0.203-0.017-0.056-0.009-0.105-0.027-0.151-0.051l0.003 0.001c-0.042-0.023-0.078-0.050-0.109-0.081l0 0c-0.033-0.033-0.063-0.068-0.090-0.106l-0.002-0.003-3.094-3.551c-0.071-0.093-0.161-0.169-0.265-0.221l-0.004-0.002c-0.096-0.044-0.242-0.065-0.438-0.065h-0.551v4.095h-1.209v-8.944h1.209v3.92h-0.001zM26.734 26.876c0.351 0 0.662-0.044 0.931-0.129s0.495-0.206 0.676-0.362 0.318-0.342 0.409-0.558c0.092-0.217 0.138-0.456 0.138-0.718 0-0.532-0.175-0.934-0.526-1.204s-0.877-0.406-1.578-0.406h-1.329v3.377l1.278-0.001zM30.881 31.489h-1.077c-0.222 0-0.385-0.086-0.489-0.256l-2.331-3.196c-0.059-0.089-0.135-0.162-0.224-0.215l-0.003-0.002c-0.081-0.044-0.209-0.065-0.38-0.065h-0.921v3.733h-1.209v-8.945h2.537c0.567 0 1.059 0.056 1.472 0.171 0.415 0.114 0.756 0.281 1.025 0.497s0.468 0.476 0.597 0.782c0.129 0.306 0.194 0.649 0.194 1.028 0 0.316-0.050 0.611-0.15 0.886-0.105 0.285-0.252 0.53-0.437 0.741l0.002-0.003c-0.19 0.219-0.422 0.406-0.695 0.56-0.268 0.151-0.579 0.272-0.908 0.345l-0.023 0.004c0.154 0.087 0.288 0.215 0.4 0.381l2.619 3.551zM39.651 28.167l-1.409-3.639c-0.086-0.217-0.176-0.495-0.251-0.78l-0.012-0.056c-0.087 0.337-0.178 0.618-0.269 0.842l-1.409 3.633h3.351zM42.182 31.488h-0.94c-0.006 0-0.013 0-0.019 0-0.092 0-0.177-0.030-0.245-0.082l0.001 0.001c-0.066-0.054-0.118-0.123-0.149-0.202l-0.001-0.003-0.839-2.16h-4.029l-0.839 2.16c-0.029 0.081-0.079 0.148-0.142 0.199l-0.001 0.001c-0.068 0.055-0.156 0.087-0.251 0.087-0.005 0-0.009-0-0.014-0l0.001 0h-0.939l3.589-8.944h1.228l3.59 8.944zM47.369 31.489h-1.215v-8.945h1.215v8.945zM60.143 22.544v8.944h-0.608c-0.005 0-0.011 0-0.018 0-0.081 0-0.157-0.019-0.225-0.052l0.003 0.001c-0.077-0.043-0.14-0.1-0.191-0.167l-0.001-0.002-5.193-6.741c0.015 0.174 0.024 0.379 0.025 0.585v6.375h-1.065v-8.944h0.627c0.054 0 0.1 0.001 0.138 0.008 0.074 0.012 0.138 0.046 0.188 0.095l-0-0c0.029 0.027 0.060 0.062 0.095 0.103l5.193 6.735c-0.008-0.108-0.015-0.214-0.020-0.316-0.006-0.085-0.010-0.186-0.011-0.287v-6.338h1.065zM69.991 28.167l-1.409-3.639c-0.086-0.217-0.176-0.495-0.251-0.78l-0.012-0.056c-0.088 0.337-0.178 0.618-0.269 0.842l-1.41 3.633h3.352zM72.522 31.488h-0.94c-0.006 0-0.013 0-0.019 0-0.092 0-0.177-0.030-0.245-0.082l0.001 0.001c-0.066-0.054-0.118-0.123-0.149-0.202l-0.001-0.003-0.839-2.16h-4.029l-0.839 2.16c-0.030 0.081-0.079 0.148-0.143 0.199l-0.001 0.001c-0.068 0.055-0.156 0.087-0.251 0.087-0.004 0-0.009-0-0.013-0l0.001 0h-0.94l3.59-8.944h1.228l3.59 8.944z"></path>
</symbol>
<symbol id="gift" viewBox="0 0 32 32">
<path fill="#3d4a39" style="fill: var(--color1, #3d4a39)" d="M6 5.001c0.053-2.721 2.271-4.907 5-4.907s4.947 2.186 5 4.902l0 0.005c0.053-2.721 2.271-4.907 5-4.907s4.947 2.186 5 4.902l0 0.005v0.011c0 0.14 0 0.54-0.076 0.988h4.076c1.105 0 2 0.895 2 2v0 2c0 1.105-0.895 2-2 2v0h-28c-1.105 0-2-0.895-2-2v0-2c0-1.105 0.895-2 2-2v0h4.076c-0.049-0.286-0.077-0.615-0.077-0.95 0-0.013 0-0.027 0-0.040v0.002-0.011zM8.137 6h5.863v-1.001c-0.041-1.626-1.368-2.928-3-2.928s-2.959 1.302-3 2.924l-0 0.004c0 0.171 0.004 0.549 0.089 0.86 0.015 0.055 0.031 0.102 0.051 0.147l-0.003-0.007zM18 6h5.865c0.015-0.038 0.031-0.085 0.043-0.133l0.002-0.008c0.087-0.311 0.091-0.69 0.091-0.859 0-1.657-1.343-3-3-3s-3 1.343-3 3v0 0.999zM30 14v15.001c0 1.656-1.343 2.999-2.999 2.999-0.001 0-0.001 0-0.002 0h-8.999v-18h12zM4.999 32c-1.656 0-2.999-1.343-2.999-2.999 0-0.001 0-0.001 0-0.002v0-14.997h12v17.998h-9.001z"></path>
</symbol>
<symbol id="check" viewBox="0 0 32 32">
<path fill="#fff" style="fill: var(--color4, #fff)" d="M0 0h32v32h-32z"></path>
</symbol>
<symbol id="untitled1" viewBox="0 0 32 32">
<path fill="#ae7b3c" style="fill: var(--color3, #ae7b3c)" d="M21.333 16c0 2.946-2.388 5.333-5.333 5.333s-5.333-2.388-5.333-5.333c0-2.946 2.388-5.333 5.333-5.333s5.333 2.388 5.333 5.333z"></path>
<path fill="none" stroke="#ae7b3c" style="stroke: var(--color3, #ae7b3c)" stroke-linejoin="miter" stroke-linecap="butt" stroke-miterlimit="4" stroke-width="1.7778" d="M31.111 16c0 8.346-6.765 15.111-15.111 15.111s-15.111-6.765-15.111-15.111c0-8.346 6.765-15.111 15.111-15.111s15.111 6.765 15.111 15.111z"></path>
</symbol>
<symbol id="designing" viewBox="0 0 26 32">
<path fill="#fff" style="fill: var(--color4, #fff)" d="M22.521 5.66c0.001-0.033 0.001-0.071 0.001-0.109 0-2.966-2.322-5.389-5.247-5.55l-0.014-0.001c-0.001 0-0.003 0-0.004 0-1.002 0-1.932 0.306-2.703 0.831l0.017-0.011c-0.947-0.514-2.073-0.818-3.269-0.82h-0.001c-3.369 0.113-6.183 2.37-7.125 5.445l-0.014 0.055c-2.376 0.728-4.074 2.901-4.074 5.472 0 0.070 0.001 0.139 0.004 0.208l-0-0.010c-0.004 0.078-0.006 0.17-0.006 0.262 0 2.971 2.323 5.399 5.251 5.567l0.015 0.001h3.030l-3.561 6.47c-0.030 0.052-0.049 0.113-0.050 0.18v0c-0.006 0.017-0.010 0.037-0.010 0.058 0 0.004 0 0.009 0 0.013l-0-0.001-0.411 4.1v0.040l-0.339 3.39c-0.002 0.015-0.002 0.032-0.002 0.049 0 0.186 0.105 0.348 0.259 0.43l0.003 0.001c0.071 0.038 0.154 0.060 0.243 0.060 0.115 0 0.222-0.037 0.309-0.101l-0.001 0.001 2.7-2.11 3.24-2.54c0.084-0.040 0.15-0.106 0.189-0.188l0.001-0.002 5.43-9.85h4.45c2.943-0.17 5.266-2.598 5.266-5.569 0-0.092-0.002-0.183-0.007-0.274l0 0.013c0.001-0.045 0.002-0.097 0.002-0.15 0-2.4-1.456-4.461-3.534-5.345l-0.038-0.014zM9.53 17h2.28l-4.12 7.48-1.75-0.96 3.59-6.52zM5.12 30.18l0.17-1.744c0.473 0.12 0.88 0.352 1.207 0.668l-0.001-0.001-1.376 1.077zM7.29 28.48l-0.010 0.008c-0.497-0.516-1.142-0.886-1.867-1.040l-0.024-0.004v-0.014l0.29-2.92 1.939 1.080c0.010 0 0.010 0.010 0.020 0.010s0.010 0.010 0.020 0.010l1.94 1.071-2.31 1.8zM10.32 25.93h-0.010l-1.74-0.97 4.38-7.96h2.28l-4.91 8.929zM20.831 16h-15.48c-2.391-0.168-4.267-2.149-4.267-4.568 0-0.092 0.003-0.184 0.008-0.274l-0.001 0.012c-0.003-0.062-0.005-0.135-0.005-0.208 0-2.161 1.462-3.981 3.451-4.524l0.033-0.008h0.020c2.052 0.16 3.657 1.864 3.657 3.944 0 0.080-0.002 0.158-0.007 0.237l0.001-0.011c0 0.276 0.224 0.5 0.5 0.5s0.5-0.224 0.5-0.5v0c0.002-0.055 0.003-0.12 0.003-0.185 0-2.418-1.706-4.437-3.98-4.919l-0.033-0.006c0.902-2.565 3.26-4.39 6.058-4.489l0.012-0c1.051-0 2.083 0.279 2.99 0.81 0.010 0.010 0.020 0.010 0.030 0.020 0.949 0.669 1.609 1.694 1.787 2.877l0.003 0.024c0.010 0.050 0.010 0.090 0.020 0.14 0.031 0.247 0.238 0.437 0.489 0.44h0.060c0.251-0.035 0.443-0.248 0.443-0.506 0-0.019-0.001-0.037-0.003-0.056l0 0.002c0-0.002 0-0.004 0-0.006 0-0.013-0.004-0.024-0.011-0.034l0 0c-0.154-1.295-0.761-2.425-1.656-3.247l-0.004-0.003c0.523-0.288 1.147-0.458 1.809-0.46h0.001c2.374 0.158 4.24 2.123 4.24 4.523 0 0.013-0 0.026-0 0.039v-0.002c-0.61 0.068-1.162 0.264-1.647 0.56l0.018-0.010c-0.328 0.181-0.61 0.39-0.861 0.632l0.001-0.001c-0.413 0.391-0.761 0.846-1.026 1.351l-0.014 0.028c-0.036 0.067-0.058 0.146-0.058 0.23 0 0.193 0.112 0.36 0.275 0.439l0.003 0.001c0.063 0.037 0.139 0.059 0.219 0.060h0c0.002 0 0.004 0 0.006 0 0.192 0 0.359-0.108 0.442-0.267l0.001-0.003c0.229-0.445 0.523-0.823 0.876-1.136l0.004-0.003c0.236-0.228 0.51-0.419 0.811-0.562l0.019-0.008c0.393-0.203 0.856-0.327 1.346-0.339l0.004-0c0.010-0.010 0.010-0.010 0.019 0 1.853 0.67 3.154 2.415 3.154 4.463 0 0.062-0.001 0.124-0.004 0.186l0-0.009c0.005 0.078 0.007 0.169 0.007 0.261 0 2.419-1.876 4.4-4.253 4.567l-0.015 0.001zM20.281 10.56c0.018-0.050 0.029-0.107 0.029-0.167 0-0.123-0.045-0.236-0.119-0.324l0.001 0.001c-0.055-0.071-0.13-0.123-0.217-0.149l-0.003-0.001c-0.046-0.015-0.099-0.023-0.154-0.023-0.223 0-0.413 0.142-0.485 0.34l-0.001 0.004c-0.148 0.427-0.233 0.919-0.233 1.432 0 0.119 0.005 0.237 0.014 0.354l-0.001-0.015c0 0 0 0 0 0 0 0.003-0.001 0.005-0.003 0.007v0c-0.002 0.002-0.004 0.003-0.007 0.003-0 0-0 0-0 0h0c-0.010 0.020-0.010 0.030-0.019 0.040l0.030-0.020c0.032 0.62 0.203 1.194 0.481 1.701l-0.010-0.021c0.084 0.16 0.249 0.268 0.44 0.27h0c0.081 0.001 0.16-0.020 0.23-0.060 0.161-0.082 0.269-0.247 0.269-0.437 0-0.085-0.022-0.166-0.060-0.236l0.001 0.003c-0.235-0.454-0.372-0.992-0.372-1.561 0-0.408 0.071-0.8 0.201-1.163l-0.008 0.024zM7.301 12.62c-0.309 0.102-0.664 0.161-1.033 0.161-0.608 0-1.179-0.16-1.673-0.44l0.017 0.009c-0.073-0.044-0.161-0.070-0.255-0.070-0.276 0-0.499 0.224-0.499 0.499 0 0.197 0.115 0.368 0.281 0.449l0.003 0.001c0.621 0.345 1.362 0.549 2.15 0.55h0c0.448 0 0.894-0.070 1.32-0.21 0.203-0.064 0.347-0.25 0.347-0.47 0-0.057-0.010-0.112-0.028-0.164l0.001 0.003c-0.067-0.202-0.255-0.345-0.475-0.345-0.055 0-0.109 0.009-0.159 0.026l0.004-0.001zM15.891 11.66c-0.233-0.235-0.492-0.443-0.772-0.62l-0.018-0.011c-0.27-0.177-0.579-0.338-0.904-0.468l-0.035-0.012c-0.27-0.111-0.586-0.201-0.914-0.256l-0.027-0.004c-0.162-0.038-0.348-0.060-0.539-0.060h-0c-0.067-0.037-0.146-0.059-0.231-0.059-0.092 0-0.178 0.026-0.251 0.070l0.002-0.001h-0.010c-0.012-0.005-0.026-0.008-0.040-0.008s-0.028 0.003-0.041 0.008l0.001-0c-0.591 0.045-1.135 0.206-1.623 0.461l0.023-0.011c-0.144 0.089-0.239 0.247-0.239 0.427 0 0.276 0.224 0.5 0.5 0.5 0.068 0 0.133-0.014 0.192-0.038l-0.003 0.001c0.165-0.089 0.339-0.159 0.52-0.21h0.010c0.293-0.094 0.63-0.149 0.979-0.149 0.081 0 0.162 0.003 0.241 0.009l-0.011-0.001c0.378 0.025 0.749 0.11 1.101 0.25 0.289 0.111 0.564 0.255 0.819 0.43 0.281 0.19 0.54 0.411 0.77 0.66 0.282 0.303 0.525 0.649 0.718 1.024l0.012 0.026c0.083 0.167 0.253 0.28 0.449 0.28 0 0 0 0 0.001 0h-0c0.153-0.004 0.288-0.073 0.382-0.18l0.001-0.001c0.072-0.085 0.116-0.196 0.116-0.318 0-0.085-0.021-0.165-0.059-0.234l0.001 0.003c-0.294-0.586-0.669-1.085-1.117-1.507l-0.003-0.003zM12.691 4.28c0.133-0.091 0.219-0.242 0.219-0.413 0-0.276-0.224-0.5-0.5-0.5-0.064 0-0.126 0.012-0.182 0.034l0.003-0.001c-0.454 0.235-0.992 0.372-1.561 0.372-0.408 0-0.8-0.071-1.163-0.201l0.024 0.008c-0.050-0.018-0.107-0.029-0.167-0.029-0.218 0-0.404 0.14-0.472 0.335l-0.001 0.003c-0.014 0.045-0.022 0.097-0.022 0.151 0 0.223 0.141 0.414 0.339 0.488l0.004 0.001c0.442 0.151 0.95 0.238 1.479 0.24h0.001c0.008 0 0.016 0 0.025 0 0.722 0 1.403-0.181 1.997-0.501l-0.023 0.011z"></path>
</symbol>
<symbol id="covering" viewBox="0 0 32 32">
<path fill="#fff" style="fill: var(--color4, #fff)" d="M31.826 30.992l-4.224-20.416c-0.070-0.322-0.352-0.56-0.69-0.56-0 0-0 0-0 0h-21.824c-0.334 0-0.623 0.236-0.69 0.56l-4.224 20.416c-0.042 0.207 0.011 0.422 0.145 0.588s0.334 0.26 0.546 0.26h30.272c0.389-0.001 0.705-0.316 0.705-0.706 0-0.050-0.005-0.1-0.015-0.147l0.001 0.005zM28.158 20.224h-11.454v-8.8h9.634l1.82 8.8zM5.662 11.424h9.634v8.8h-11.454l1.82-8.8zM3.564 21.565c0.088 0.042 0.187 0.067 0.292 0.067h11.44v8.8h-13.566l1.834-8.867zM16.704 30.432v-8.8h11.44c0.106 0 0.204-0.025 0.292-0.067l1.834 8.867h-13.566zM18.464 4.032c0.972 0 1.76 0.788 1.76 1.76 0 0.387 0.317 0.704 0.704 0.704s0.704-0.317 0.704-0.704c0-0.972 0.788-1.76 1.76-1.76 0.387 0 0.704-0.317 0.704-0.704s-0.317-0.704-0.704-0.704c-0.972-0-1.76-0.788-1.76-1.76v-0c0-0.387-0.317-0.704-0.704-0.704s-0.704 0.317-0.704 0.704c0 0.972-0.788 1.76-1.76 1.76-0.387 0-0.704 0.317-0.704 0.704s0.317 0.704 0.704 0.704zM20.928 2.849c0.141 0.176 0.303 0.334 0.479 0.479-0.176 0.141-0.334 0.303-0.479 0.479-0.144-0.178-0.301-0.335-0.473-0.474l-0.006-0.005c0.176-0.141 0.338-0.303 0.479-0.479zM8.608 5.44c0.972 0 1.76 0.788 1.76 1.76 0 0.387 0.317 0.704 0.704 0.704s0.704-0.317 0.704-0.704c0-0.972 0.788-1.76 1.76-1.76 0.387 0 0.704-0.317 0.704-0.704s-0.317-0.704-0.704-0.704c-0.972-0-1.76-0.788-1.76-1.76v-0c0-0.387-0.317-0.704-0.704-0.704s-0.704 0.317-0.704 0.704c0 0.972-0.788 1.76-1.76 1.76-0.387 0-0.704 0.317-0.704 0.704s0.317 0.704 0.704 0.704zM11.072 4.257c0.141 0.176 0.303 0.334 0.479 0.479-0.176 0.141-0.334 0.303-0.479 0.479-0.144-0.178-0.301-0.335-0.473-0.474l-0.006-0.005c0.176-0.141 0.338-0.303 0.479-0.479z"></path>
</symbol>
<symbol id="door" viewBox="0 0 24 32">
<path fill="none" stroke="#fff" style="stroke: var(--color4, #fff)" stroke-linejoin="round" stroke-linecap="round" stroke-miterlimit="4" stroke-width="1.0435" d="M17.573 2.296l-6.652 1.549v18.925l6.652-1.552v-18.922z"></path>
<path fill="none" stroke="#fff" style="stroke: var(--color4, #fff)" stroke-linejoin="round" stroke-linecap="round" stroke-miterlimit="4" stroke-width="1.0435" d="M17.573 2.296v-0.018h-11.494v18.922h4.841M13.231 13.091v-2.025"></path>
</symbol>
<symbol id="oven" viewBox="0 0 31 32">
<path fill="#fff" style="fill: var(--color4, #fff)" d="M24.662 1.72h-18.012c-0.668 0.001-1.21 0.542-1.211 1.21v18.013c0.001 0.668 0.542 1.209 1.21 1.209h0.586v0.916c0 0.181 0.147 0.328 0.329 0.328h2.86c0 0 0 0 0 0 0.181 0 0.328-0.147 0.328-0.328v0-0.916h9.806v0.916c0 0.181 0.147 0.328 0.329 0.328h2.859c0 0 0 0 0 0 0.181 0 0.328-0.147 0.328-0.328v0-0.916h0.586c0.668-0 1.21-0.542 1.211-1.21v-18.013c-0-0.668-0.542-1.21-1.21-1.21h-0zM6.65 2.377h18.012c0.305 0 0.554 0.248 0.554 0.554v3.282h-19.12v-3.282c0-0.305 0.248-0.554 0.554-0.554zM10.096 22.741h-2.203v-0.587h2.203v0.587zM23.419 22.741h-2.203v-0.587h2.203v0.587zM24.662 21.496h-18.012c-0.306 0-0.554-0.248-0.554-0.553v-14.073h19.12v14.073c0 0.305-0.249 0.553-0.554 0.553z"></path>
<path fill="#fff" style="fill: var(--color4, #fff)" d="M20.887 5.616c0.729-0.001 1.32-0.592 1.321-1.321v-0c-0.001-0.729-0.592-1.32-1.321-1.321h-0c-0.729 0.001-1.32 0.592-1.321 1.321v0c0.001 0.729 0.592 1.32 1.321 1.321h0zM20.887 3.631c0.366 0 0.664 0.298 0.664 0.664s-0.298 0.664-0.664 0.664c-0.367-0-0.664-0.297-0.664-0.664v-0c0-0.366 0.298-0.664 0.664-0.664zM15.656 5.617c0.729-0.001 1.32-0.592 1.321-1.321v-0c-0.001-0.729-0.591-1.32-1.32-1.321h-0c-0.729 0.001-1.321 0.592-1.321 1.321v0c0.001 0.729 0.592 1.32 1.321 1.321h0zM15.656 3.631c0.366 0 0.664 0.298 0.664 0.664s-0.298 0.664-0.664 0.664c-0.367-0.001-0.663-0.298-0.664-0.664v-0c0-0.366 0.298-0.664 0.664-0.664zM10.424 5.617c0.729-0.001 1.32-0.592 1.321-1.321v-0c-0.001-0.729-0.592-1.32-1.32-1.321h-0c-0.729 0.001-1.32 0.592-1.321 1.321v0c0.001 0.729 0.592 1.32 1.321 1.321h0zM10.424 3.631c0.366 0 0.664 0.298 0.664 0.664s-0.298 0.664-0.664 0.664c-0.367-0.001-0.663-0.298-0.664-0.664v-0c0-0.366 0.298-0.664 0.664-0.664zM22.831 11.020h-14.349c-0.181 0-0.329 0.147-0.329 0.329v0 7.996c0 0.182 0.147 0.329 0.329 0.329h14.349c0 0 0 0 0 0 0.181 0 0.329-0.147 0.329-0.329v0-7.996c-0-0.182-0.147-0.329-0.329-0.329v0zM22.503 19.016h-13.693v-7.339h13.693v7.339z"></path>
</symbol>
<symbol id="lighting" viewBox="0 0 21 32">
<path fill="#fff" style="fill: var(--color4, #fff)" d="M20.621 21.814c0.128 0 0.25-0.051 0.34-0.142s0.141-0.215 0.141-0.344c0-6.317-3.934-10.455-10.068-10.659v-10.182c0-0.129-0.051-0.253-0.141-0.344-0.087-0.088-0.207-0.142-0.34-0.142s-0.253 0.054-0.34 0.142l-0 0c-0.087 0.088-0.141 0.21-0.141 0.344 0 0 0 0 0 0.001v-0 10.182c-6.137 0.204-10.072 4.342-10.072 10.659 0 0.129 0.051 0.253 0.141 0.344s0.212 0.142 0.34 0.142h6.269c0.147 0.958 0.614 1.787 1.287 2.392l0.004 0.003c0.665 0.597 1.541 0.972 2.503 1l0.006 0c0.969-0.028 1.845-0.402 2.514-1.003l-0.004 0.003c0.677-0.608 1.145-1.437 1.289-2.373l0.003-0.022h6.269zM10.55 11.632c4.527 0 9.36 2.432 9.581 9.21h-19.17c0.228-6.777 5.060-9.21 9.588-9.21zM10.55 24.237c-0.702-0.029-1.337-0.296-1.83-0.722l0.004 0.003c-0.5-0.432-0.857-1.018-0.996-1.685l-0.003-0.020h5.653c-0.142 0.687-0.499 1.274-0.996 1.702l-0.004 0.003c-0.49 0.422-1.125 0.689-1.822 0.716l-0.006 0zM21.144 27.732l-2.985-2.302c-0.080-0.062-0.182-0.1-0.292-0.1-0.156 0-0.295 0.075-0.382 0.191l-0.001 0.001c-0.061 0.081-0.098 0.184-0.098 0.295 0 0.157 0.074 0.297 0.189 0.387l0.001 0.001 2.985 2.302c0.080 0.062 0.182 0.1 0.292 0.1 0.156 0 0.295-0.075 0.382-0.191l0.001-0.001c0.062-0.081 0.099-0.184 0.099-0.295 0-0.090-0.024-0.175-0.067-0.248l0.001 0.002c-0.033-0.056-0.074-0.103-0.123-0.142l-0.001-0.001zM3.723 25.391l-2.902 2.406c-0.118 0.073-0.201 0.193-0.224 0.333l-0 0.003c-0.004 0.024-0.006 0.051-0.006 0.079 0 0.119 0.042 0.228 0.112 0.313l-0.001-0.001c0.087 0.105 0.216 0.172 0.361 0.175h0.001c0.002 0 0.005 0 0.008 0 0.143 0 0.271-0.063 0.358-0.162l0-0.001 2.905-2.403c0.101-0.079 0.169-0.195 0.184-0.328l0-0.002c0.002-0.016 0.003-0.035 0.003-0.055 0-0.117-0.041-0.225-0.109-0.309l0.001 0.001c-0.080-0.098-0.197-0.164-0.33-0.176l-0.002-0c-0.012-0.001-0.027-0.002-0.041-0.002-0.121 0-0.232 0.045-0.316 0.12l0.001-0-0.003 0.009zM10.691 27.632c-0.128 0-0.25 0.051-0.34 0.143-0.087 0.088-0.141 0.21-0.141 0.344 0 0 0 0 0 0v0 3.395c0 0.129 0.051 0.253 0.141 0.344 0.087 0.088 0.207 0.142 0.34 0.142s0.253-0.054 0.34-0.142l0-0c0.090-0.091 0.141-0.215 0.141-0.344v-3.395c0-0.129-0.051-0.253-0.141-0.344-0.087-0.088-0.207-0.143-0.34-0.143h-0z"></path>
</symbol>
<symbol id="furniture" viewBox="0 0 31 32">
<path fill="#fff" style="fill: var(--color4, #fff)" d="M24.242-40.631c-0 0-0 0-0 0-0.19 0-0.343-0.154-0.343-0.343 0-0 0-0 0-0v0-1.666h-15.797v1.666c0 0.19-0.154 0.344-0.344 0.344s-0.344-0.154-0.344-0.344v0-5.973c0-1.011 0.822-1.833 1.832-1.833h13.507c1.011 0 1.833 0.823 1.833 1.833v5.973c0 0 0 0 0 0 0 0.19-0.154 0.343-0.343 0.343 0 0 0 0 0 0v0zM8.101-43.328h15.797v-3.619c-0.001-0.633-0.513-1.145-1.146-1.146h-13.507c-0.632 0.001-1.144 0.514-1.144 1.146v3.619h-0zM25.624-48.848h-19.249c-0.19 0-0.344-0.154-0.344-0.344s0.154-0.344 0.344-0.344v0h19.249c0.19 0 0.344 0.154 0.344 0.344s-0.154 0.344-0.344 0.344v0zM-119.276-9.738c-0.19-0-0.343-0.154-0.344-0.344v-3.184h-3.931v3.184c-0.006 0.185-0.158 0.333-0.344 0.333s-0.338-0.148-0.344-0.333v-5.035h-0.638c-0.183-0.008-0.329-0.159-0.329-0.344s0.145-0.335 0.328-0.344l0.001-0h5.293l0.49-4.409v-2.122c0.008-0.183 0.159-0.329 0.344-0.329s0.335 0.145 0.344 0.328l0 0.001v2.136l-0 0.025c-0 0.009-0.001 0.017-0.002 0.024l0-0.001-0.523 4.71v5.359c-0 0.19-0.154 0.344-0.344 0.344v0zM-123.551-13.953h3.931v-1.163h-3.931v1.163zM-128.375-9.738c-0.001 0-0.001 0-0.002 0-0.010 0-0.020-0.001-0.030-0.001l0.001 0h-2.278c-0.183-0.008-0.329-0.159-0.329-0.344s0.145-0.335 0.328-0.344l0.001-0h1.965v-7.848h-5.579c-0.005 0-0.010 0-0.015 0-0.19 0-0.344-0.154-0.344-0.344s0.154-0.344 0.344-0.344c0.005 0 0.011 0 0.016 0l-0.001-0h11.847c0.183 0.008 0.329 0.159 0.329 0.344s-0.145 0.335-0.328 0.344l-0.001 0h-5.581v7.848h1.966c0.183 0.008 0.329 0.159 0.329 0.344s-0.145 0.335-0.328 0.344l-0.001 0h-2.279c-0.008 0.001-0.018 0.001-0.028 0.001-0.001 0-0.002 0-0.002 0h0zM-132.856-9.738c-0.19 0-0.344-0.154-0.344-0.344v-3.184h-3.931v3.184c-0.008 0.183-0.159 0.329-0.344 0.329s-0.335-0.146-0.344-0.328l-0-0.001v-5.359l-0.523-4.71c-0.001-0.007-0.002-0.015-0.002-0.024l-0-0.001c-0.001-0.007-0.001-0.015-0.001-0.023v-2.136c0.008-0.183 0.159-0.329 0.344-0.329s0.335 0.145 0.344 0.328l0 0.001v2.122l0.49 4.409h5.292c0.183 0.008 0.329 0.159 0.329 0.344s-0.145 0.335-0.328 0.344l-0.001 0h-0.638v5.035c0 0 0 0 0 0 0 0.19-0.154 0.343-0.343 0.343-0 0-0 0-0 0h0zM-137.13-13.953h3.931v-1.163h-3.931v1.163zM-91.257-11.326c-0.19-0-0.343-0.154-0.344-0.344v-0.946h-7.899c-0 0-0 0-0 0-0.19 0-0.343-0.154-0.343-0.343 0-0 0-0 0-0.001v0-6.584h-7.555v7.873c-0.006 0.185-0.158 0.333-0.344 0.333s-0.338-0.148-0.344-0.333v-7.874h-1.038c-0.19-0-0.343-0.154-0.344-0.344v-0.86c0-0.19 0.154-0.343 0.344-0.343h19.25c0.19 0 0.344 0.154 0.344 0.343v0.86c0 0.19-0.154 0.343-0.344 0.343h-1.038v7.874c0 0.19-0.154 0.343-0.344 0.343zM-99.157-13.303h7.556v-2.776h-7.556v2.776zM-99.157-16.767h7.556v-2.777h-7.556v2.777zM-91.257-20.231h1.039v-0.172h-18.563v0.172h17.524zM-94.928-14.347h-0.898c-0.19 0-0.344-0.154-0.344-0.344s0.154-0.344 0.344-0.344h0.898c0.19 0 0.344 0.154 0.344 0.344s-0.154 0.344-0.344 0.344v0zM-94.928-17.812h-0.898c-0.19 0-0.344-0.154-0.344-0.344s0.154-0.344 0.344-0.344h0.898c0.19 0 0.344 0.154 0.344 0.344s-0.154 0.344-0.344 0.344v0zM-62.382-11.326c-0.19-0-0.343-0.154-0.344-0.344v-4.409h-15.798v4.409c-0.006 0.185-0.158 0.333-0.344 0.333s-0.338-0.148-0.344-0.333v-7.874h-1.038c-0.19-0-0.343-0.154-0.344-0.344v-0.86c0-0.19 0.154-0.343 0.344-0.343h19.25c0.19 0 0.344 0.154 0.344 0.343v0.86c0 0.19-0.154 0.343-0.344 0.343h-1.038v7.874c0 0.19-0.154 0.343-0.344 0.343zM-70.282-16.767h7.556v-2.777h-7.556v2.777zM-78.524-16.767h7.555v-2.777h-7.555v2.777zM-62.382-20.231h1.039v-0.172h-18.563v0.172h17.524zM-66.053-17.812h-0.898c-0.183-0.008-0.329-0.159-0.329-0.344s0.145-0.335 0.328-0.344l0.001-0h0.898c0.183 0.008 0.329 0.159 0.329 0.344s-0.145 0.335-0.328 0.344l-0.001 0zM-74.297-17.865h-0.899c-0.183-0.008-0.329-0.159-0.329-0.344s0.145-0.335 0.328-0.344l0.001-0h0.899c0.183 0.008 0.329 0.159 0.329 0.344s-0.145 0.335-0.328 0.344l-0.001 0zM-37.787-6.24c-0 0-0 0-0 0-0.19 0-0.343-0.154-0.343-0.343 0-0 0-0 0-0v0-1.038h-7.24v1.038c0 0.19-0.154 0.344-0.344 0.344s-0.344-0.154-0.344-0.344v0-6.49h-1.254c-0 0-0 0-0 0-0.19 0-0.343-0.154-0.343-0.343 0-0 0-0 0-0v0c0.017-0.661 0.539-1.171 1.191-1.171h0.493l0.003-7.524c0.091-2.285 1.943-4.065 4.218-4.065 0.004 0 0.009-0 0.014-0 2.269 0 4.118 1.796 4.204 4.044l0 0.008 0.004 7.538h0.493c0.641 0 1.176 0.521 1.191 1.161v0.010c0 0 0 0 0 0 0 0.19-0.154 0.343-0.343 0.343-0 0-0 0-0 0h-1.255v6.49c-0.001 0.19-0.155 0.344-0.345 0.344 0 0 0 0 0 0v0zM-45.371-8.309h7.24v-2.039h-7.24v2.039zM-45.371-11.035h7.24v-2.038h-7.24v2.038zM-37.787-13.761h1.098c-0.090-0.086-0.212-0.139-0.347-0.139h-9.429c-0.133 0-0.256 0.053-0.347 0.139h9.025zM-45.284-14.588h7.068l-0.004-7.524c-0.075-1.888-1.626-3.378-3.531-3.378-0.003 0-0.007 0-0.010 0-1.899 0-3.448 1.503-3.521 3.384l-0 0.007-0.003 7.511zM-41.318-8.984h-0.863c-0.19 0-0.344-0.154-0.344-0.344s0.154-0.344 0.344-0.344v0h0.863c0.19 0 0.344 0.154 0.344 0.344s-0.154 0.344-0.344 0.344v0zM-41.318-11.711h-0.863c-0.19 0-0.344-0.154-0.344-0.344s0.154-0.344 0.344-0.344v0h0.863c0.19 0 0.344 0.154 0.344 0.344s-0.154 0.344-0.344 0.344v0zM-43.699-17.746c-0 0-0.001 0-0.002 0-0.189 0-0.343-0.154-0.343-0.343 0-0.095 0.039-0.181 0.102-0.244l3.898-3.898c0.062-0.062 0.148-0.101 0.243-0.101 0.19 0 0.344 0.154 0.344 0.344 0 0.095-0.038 0.181-0.101 0.243v0l-3.898 3.898c-0.062 0.062-0.147 0.101-0.242 0.101-0 0-0.001 0-0.001 0h0zM-42.001-17.986c-0.19-0-0.343-0.154-0.343-0.344 0-0.095 0.038-0.181 0.101-0.243v0l1.96-1.959c0.062-0.059 0.145-0.095 0.237-0.095 0.19 0 0.344 0.154 0.344 0.344 0 0.092-0.036 0.176-0.095 0.237l-1.96 1.958c-0.062 0.062-0.148 0.101-0.243 0.101v0zM-43.458-19.444c-0 0-0.001 0-0.002 0-0.189 0-0.343-0.154-0.343-0.343 0-0.095 0.039-0.181 0.102-0.244l1.958-1.959c0.062-0.062 0.148-0.101 0.243-0.101 0.19 0 0.344 0.154 0.344 0.344 0 0.095-0.038 0.181-0.101 0.243v0l-1.958 1.959c-0.062 0.062-0.148 0.101-0.243 0.101-0 0-0 0-0 0h0zM-17.603-6.24c-0.19-0.001-0.343-0.155-0.343-0.344 0-0.049 0.010-0.096 0.029-0.138l-0.001 0.002 0.248-0.573h-0.546c-0.19 0-0.343-0.154-0.343-0.343v-7.348c0-0.2 0.18-0.358 0.374-0.342h2.882v-4.040h-2.913c-0.19-0-0.344-0.154-0.344-0.344 0-0.019 0.002-0.038 0.004-0.056l-0 0.002 0.969-6.123c0.027-0.165 0.168-0.29 0.339-0.29 0 0 0 0 0 0h4.572c0.169 0 0.313 0.123 0.339 0.29l0.971 6.123c0.003 0.016 0.004 0.035 0.004 0.054 0 0.19-0.154 0.344-0.344 0.344h-0.767v1.635c0 0.19-0.154 0.344-0.344 0.344s-0.344-0.154-0.344-0.344v0-1.635h-1.456v4.040h7.051c0.194-0.015 0.374 0.142 0.374 0.342v7.347c0 0.19-0.154 0.344-0.344 0.344h-0.533l0.249 0.573c0.018 0.040 0.028 0.087 0.028 0.137 0 0.19-0.154 0.344-0.344 0.344-0.14 0-0.261-0.084-0.314-0.205l-0.001-0.002-0.367-0.847h-8.105l-0.366 0.846c-0.057 0.13-0.183 0.207-0.316 0.207zM-8.583-7.98h0.705v-2.985h-9.994v2.985h0.718c0.002-0 0.005-0 0.008-0s0.006 0 0.008 0l-0-0h8.54c0.002-0 0.005-0 0.008-0s0.005 0 0.008 0l-0-0zM-17.872-11.653h9.994v-2.986h-9.994v2.986zM-12.816-20.054h0.709l-0.862-5.435h-3.984l-0.86 5.436h4.997zM-12.294-9.128h-1.164c-0.19 0-0.344-0.154-0.344-0.344s0.154-0.344 0.344-0.344v0h1.164c0.19 0 0.344 0.154 0.344 0.344s-0.154 0.344-0.344 0.344v0zM-12.294-12.804h-1.164c-0.19 0-0.344-0.154-0.344-0.344s0.154-0.344 0.344-0.344v0h1.164c0.19 0 0.344 0.154 0.344 0.344s-0.154 0.344-0.344 0.344v0zM25.085-12.080c-0.133 0-0.26-0.078-0.316-0.207l-0.322-0.742h-16.883l-0.32 0.741c-0.058 0.114-0.174 0.191-0.308 0.191-0.19 0-0.344-0.154-0.344-0.344 0-0.043 0.008-0.084 0.022-0.122l-0.001 0.002 0.202-0.468h-0.441c-0.19 0-0.344-0.154-0.344-0.344v-6.62c0-0.197 0.177-0.355 0.365-0.343h9.581c0.007-0 0.015-0.002 0.022-0 0.009-0.002 0.015 0 0.022 0.001h9.581c0.187-0.012 0.365 0.146 0.365 0.343v6.62c0 0.19-0.153 0.344-0.344 0.344h-0.427l0.203 0.468c0.018 0.040 0.029 0.087 0.029 0.137 0 0.19-0.154 0.343-0.343 0.343-0 0-0 0-0 0v0zM24.681-13.716h0.6v-2.623h-8.937v2.623h8.322c0.002-0 0.005-0 0.008-0s0.005 0 0.008 0l-0-0zM7.347-13.716h8.309v-2.623h-8.937v2.623h0.613c0.002-0 0.005-0 0.008-0s0.005 0 0.008 0l-0-0zM16.344-17.026h8.937v-2.622h-8.937v2.622zM6.719-17.026h8.937v-2.622h-8.937v2.622zM21.337-14.683h-1.049c-0.19 0-0.344-0.154-0.344-0.344s0.154-0.344 0.344-0.344v0h1.049c0.19 0 0.344 0.154 0.344 0.344s-0.154 0.344-0.344 0.344v0zM11.71-14.683h-1.049c-0.19 0-0.344-0.154-0.344-0.344s0.154-0.344 0.344-0.344v0h1.049c0.19 0 0.344 0.154 0.344 0.344s-0.154 0.344-0.344 0.344c-0 0-0 0-0 0v0zM21.337-17.993h-1.049c-0.19 0-0.344-0.154-0.344-0.344s0.154-0.344 0.344-0.344v0h1.049c0.19 0 0.344 0.154 0.344 0.344s-0.154 0.344-0.344 0.344v0zM11.71-17.993h-1.049c-0.19 0-0.344-0.154-0.344-0.344s0.154-0.344 0.344-0.344v0h1.049c0.19 0 0.344 0.154 0.344 0.344s-0.154 0.344-0.344 0.344c-0 0-0 0-0 0v0zM-137.446 16.794c0 0-0 0-0 0-0.19 0-0.343-0.154-0.343-0.343 0-0.049 0.010-0.096 0.029-0.139l-0.001 0.002 0.202-0.468h-0.441c-0 0-0 0-0 0-0.19 0-0.343-0.154-0.343-0.343 0-0 0-0 0-0v0-6.62c0-0.19 0.154-0.344 0.344-0.344h19.25c0.19 0 0.344 0.153 0.344 0.344v6.619c0 0 0 0 0 0 0 0.19-0.154 0.343-0.343 0.343-0 0-0 0-0 0h-0.427l0.203 0.468c0.018 0.040 0.028 0.087 0.028 0.137 0 0.19-0.154 0.344-0.344 0.344-0.14 0-0.261-0.084-0.315-0.205l-0.001-0.002-0.322-0.741h-16.883l-0.321 0.741c-0.054 0.123-0.175 0.208-0.315 0.208-0 0-0 0-0 0v0zM-119.694 15.158h0.6v-5.932h-8.937v5.932h8.337zM-137.028 15.158h8.309v-2.622h-8.937v2.622h0.629zM-137.656 11.848h8.937v-2.622h-8.937v2.622zM-132.663 14.191h-1.049c-0.19 0-0.344-0.154-0.344-0.344s0.154-0.344 0.344-0.344v0h1.049c0.19 0 0.344 0.154 0.344 0.344s-0.154 0.344-0.344 0.344v0zM-127.304 13.060c-0 0-0 0-0 0-0.19 0-0.343-0.154-0.343-0.343 0-0 0-0 0-0.001v0-1.049c0-0.19 0.154-0.344 0.344-0.344s0.344 0.154 0.344 0.344v0 1.049c0 0.19-0.154 0.344-0.344 0.344zM-132.663 10.88h-1.049c-0.19 0-0.344-0.154-0.344-0.344s0.154-0.344 0.344-0.344v0h1.049c0.19 0 0.344 0.154 0.344 0.344s-0.154 0.344-0.344 0.344v0zM-90.826 18.207c-0.19 0-0.344-0.154-0.344-0.344v-0.12h-16.646v0.12c0 0.19-0.154 0.344-0.344 0.344s-0.344-0.154-0.344-0.344v0-0.12h-0.59c-0.197 0.022-0.374-0.142-0.374-0.343v-9.93c0-0.19 0.154-0.344 0.344-0.344h19.25c0 0 0 0 0 0 0.19 0 0.343 0.154 0.343 0.343 0 0.011-0.001 0.022-0.001 0.032l0-0.001v3.249c0.001 0.010 0.001 0.020 0.001 0.030v6.619c0 0 0 0 0 0.001 0 0.19-0.154 0.343-0.343 0.343-0 0-0 0-0 0h-0.607v0.12c-0 0.19-0.154 0.343-0.344 0.343 0 0 0 0 0 0v0zM-99.155 17.056h8.937v-2.622h-8.937v2.622zM-108.781 17.056h8.937v-2.622h-8.937v2.622zM-99.155 13.746h8.937v-2.935c-0.001-0.009-0.001-0.020-0.001-0.030v-2.966h-8.935v5.932zM-108.781 13.746h8.939v-5.932h-8.939v5.932zM-94.162 16.089h-1.049c-0.19 0-0.344-0.154-0.344-0.344s0.154-0.344 0.344-0.344h1.049c0.19 0 0.344 0.154 0.344 0.344s-0.154 0.344-0.344 0.344v0zM-103.788 16.089h-1.049c-0.19 0-0.344-0.154-0.344-0.344s0.154-0.344 0.344-0.344h1.049c0.19 0 0.344 0.154 0.344 0.344s-0.154 0.344-0.344 0.344v0zM-90.893 11.647c-0 0-0 0-0 0-0.19 0-0.343-0.154-0.343-0.343 0 0 0 0 0 0v0-1.048c0-0.19 0.154-0.344 0.344-0.344s0.344 0.154 0.344 0.344v0 1.048c0 0.19-0.154 0.344-0.344 0.344zM-108.113 11.647c-0 0-0 0-0 0-0.19 0-0.343-0.154-0.343-0.343 0 0 0 0 0 0v0-1.048c0-0.19 0.154-0.344 0.344-0.344s0.344 0.154 0.344 0.344v0 1.048c0 0 0 0 0 0 0 0.19-0.154 0.343-0.343 0.343-0 0-0 0-0 0h0zM-61.951 19.979c-0 0-0 0-0 0-0.19 0-0.343-0.154-0.343-0.343 0-0 0-0 0-0.001v0-0.122h-16.646v0.122c0 0.19-0.154 0.344-0.344 0.344s-0.344-0.154-0.344-0.344v0-0.122h-0.59c-0.196 0.022-0.374-0.142-0.374-0.343v-3.311c0-0.19 0.154-0.343 0.344-0.343h1.405v-0.882h-1.405c-0.19 0-0.344-0.154-0.344-0.344s0.154-0.344 0.344-0.344v0h8.229l0.232-0.752h-5.007c-0 0-0 0-0 0-0.19 0-0.343-0.154-0.343-0.343 0-0 0-0 0-0v0-7.153c0-0.19 0.154-0.344 0.344-0.344h12.343c0 0 0 0 0 0 0.19 0 0.343 0.154 0.343 0.343 0 0 0 0 0 0v-0 7.154c0 0 0 0 0 0 0 0.19-0.154 0.343-0.343 0.343-0 0-0 0-0 0h-5.008l0.232 0.752h8.23c0.19 0 0.344 0.154 0.344 0.344s-0.154 0.344-0.344 0.344h-1.405v0.882h1.405c0 0 0 0 0 0 0.19 0 0.343 0.154 0.343 0.343 0 0 0 0 0 0v-0 3.31c-0 0.189-0.154 0.343-0.343 0.343-0 0-0 0-0 0h-0.607v0.122c0 0.19-0.154 0.343-0.344 0.343zM-70.282 18.826h8.938v-2.622h-8.938v2.622zM-79.906 18.826h8.937v-2.622h-8.937v2.622zM-78.158 15.516h15.066v-0.882h-6.384c-0.002 0-0.005 0-0.008 0s-0.005-0-0.008-0l0 0h-2.267c-0.002 0-0.005 0-0.008 0s-0.005-0-0.008-0l0 0h-6.383v0.882h-0zM-71.301 13.947h1.351l-0.232-0.752h-0.888l-0.232 0.752zM-69.919 12.508h5.122v-6.466h-11.655v6.466h5.121c0.002 0 0.005 0 0.008 0s0.005-0 0.008-0l-0 0 1.396-0zM-65.287 17.86h-1.049c-0.19 0-0.344-0.154-0.344-0.344s0.154-0.344 0.344-0.344h1.049c0.19 0 0.344 0.154 0.344 0.344s-0.154 0.344-0.344 0.344v0zM-74.913 17.86h-1.049c-0.19 0-0.344-0.154-0.344-0.344s0.154-0.344 0.344-0.344h1.049c0.19 0 0.344 0.154 0.344 0.344s-0.154 0.344-0.344 0.344v0zM-38.541 17.249c-0 0-0 0-0.001 0-0.19 0-0.343-0.154-0.343-0.343 0-0 0-0 0-0.001v0-0.702h-5.731v0.702c0 0.19-0.154 0.344-0.344 0.344s-0.344-0.154-0.344-0.344v0-0.702h-5.727v0.694c0 0.19-0.154 0.344-0.344 0.344s-0.344-0.154-0.344-0.344v0-8.47c0-0.19 0.154-0.344 0.344-0.344h19.249c0.19 0 0.344 0.154 0.344 0.344v8.468c0 0.19-0.154 0.344-0.344 0.344s-0.344-0.154-0.344-0.344v0-0.693h-5.729v0.702c0 0 0 0 0 0.001 0 0.19-0.154 0.343-0.343 0.343-0 0-0 0-0 0h0zM-38.198 15.516h5.729v-4.658h-5.729v4.658zM-44.617 15.516h5.731v-5.689h-5.731v5.689zM-51.031 15.516h5.727v-4.658h-5.727v4.658zM-38.198 10.17h5.729v-1.398h-5.729v1.398zM-51.031 10.17h5.727v-1.398h-5.727v1.398zM-44.617 9.139h5.731v-0.367h-5.731v0.367zM-37.772 13.869c-0 0-0 0-0.001 0-0.19 0-0.343-0.154-0.343-0.343 0 0 0 0 0 0v0-0.677c0-0.19 0.154-0.344 0.344-0.344s0.344 0.154 0.344 0.344v0 0.677c0 0 0 0 0 0 0 0.19-0.154 0.343-0.343 0.343-0 0-0 0-0 0h0zM-45.729 13.869c-0 0-0 0-0 0-0.19 0-0.343-0.154-0.343-0.343 0 0 0 0 0 0v0-0.677c0-0.19 0.154-0.344 0.344-0.344s0.344 0.154 0.344 0.344v0 0.677c0 0.19-0.153 0.344-0.344 0.344zM-34.983 9.738h-0.699c-0.19 0-0.344-0.154-0.344-0.344s0.154-0.344 0.344-0.344v0h0.699c0.19 0 0.344 0.154 0.344 0.344s-0.154 0.344-0.344 0.344v0zM-47.818 9.738h-0.698c-0.19 0-0.344-0.154-0.344-0.344s0.154-0.344 0.344-0.344v0h0.698c0.19 0 0.344 0.154 0.344 0.344s-0.154 0.344-0.344 0.344v0zM-8.211 22.635h-9.329c-0 0-0 0-0 0-0.19 0-0.343-0.154-0.343-0.343 0-0 0-0 0-0v0-19.249c0-0.19 0.153-0.344 0.343-0.344h9.331c0 0 0 0 0 0 0.19 0 0.343 0.154 0.343 0.343 0 0.011-0 0.022-0.002 0.032l0-0.001v6.357c0.001 0.009 0.002 0.020 0.002 0.030s-0.001 0.021-0.002 0.032l0-0.001v6.355c0.001 0.009 0.002 0.020 0.002 0.031s-0.001 0.021-0.002 0.032l0-0.001v6.384c0 0 0 0 0 0 0 0.19-0.154 0.343-0.343 0.343-0 0-0 0-0 0h0zM-17.196 21.948h8.642v-5.728h-8.642v5.728zM-17.196 15.531h8.642v-5.727h-8.642v5.727zM-17.196 9.113h8.642v-5.728h-8.642v5.728zM-16.56 19.937c-0 0-0 0-0 0-0.19 0-0.343-0.154-0.343-0.343 0-0 0-0 0-0v0-1.017c0-0.19 0.154-0.344 0.344-0.344s0.344 0.154 0.344 0.344v1.017c0 0.19-0.153 0.343-0.344 0.343zM-16.56 13.519c-0 0-0 0-0 0-0.19 0-0.343-0.154-0.343-0.343 0 0 0 0 0 0v0-1.016c0-0.19 0.154-0.344 0.344-0.344s0.344 0.154 0.344 0.344v1.015c0 0.19-0.153 0.344-0.344 0.344zM-16.56 7.101c-0 0-0 0-0 0-0.19 0-0.343-0.154-0.343-0.343 0-0 0-0 0-0v0-1.015c0-0.19 0.154-0.344 0.344-0.344s0.344 0.154 0.344 0.344v1.015c0 0.19-0.153 0.344-0.344 0.344zM25.33 22.635h-18.659c-0 0-0 0-0 0-0.19 0-0.343-0.154-0.343-0.343 0-0 0-0 0-0v0-19.249c0-0.19 0.153-0.344 0.343-0.344h18.659c0.19 0 0.344 0.153 0.344 0.344v19.249c0 0 0 0 0 0 0 0.19-0.154 0.343-0.343 0.343 0 0 0 0 0 0v0zM16.344 21.948h8.642v-18.562h-8.642v18.562zM7.014 21.948h8.641v-5.729h-8.642v5.729zM7.014 15.531h8.641v-12.145h-8.642v12.145zM14.913 19.937c-0 0-0 0-0 0-0.19 0-0.343-0.154-0.343-0.343 0-0 0-0 0-0v0-1.017c0-0.19 0.154-0.344 0.344-0.344s0.344 0.154 0.344 0.344v1.017c0 0.19-0.153 0.343-0.343 0.343zM17.086 13.519c-0 0-0 0-0.001 0-0.19 0-0.343-0.154-0.343-0.343 0 0 0 0 0 0v0-1.016c0-0.19 0.154-0.344 0.344-0.344s0.344 0.154 0.344 0.344v0 1.015c0 0.19-0.154 0.344-0.344 0.344zM14.913 13.519c-0 0-0 0-0 0-0.19 0-0.343-0.154-0.343-0.343 0 0 0 0 0 0v0-1.016c0-0.19 0.154-0.344 0.344-0.344s0.344 0.154 0.344 0.344v1.015c0 0.19-0.153 0.344-0.343 0.344zM-119.045 51.51h-18.66c-0 0-0 0-0 0-0.19 0-0.343-0.154-0.343-0.343 0-0 0-0 0-0v0-19.249c0-0.19 0.154-0.344 0.344-0.344h18.66c0 0 0 0 0 0 0.19 0 0.343 0.154 0.343 0.343 0 0 0 0 0 0v-0 19.25c0 0 0 0 0 0 0 0.19-0.154 0.343-0.343 0.343 0 0 0 0 0 0v0zM-128.030 50.823h8.642v-18.562h-8.642v18.562zM-137.361 50.823h8.642v-18.562h-8.642v18.562zM-123.71 48.277c-1.611 0-2.922-1.311-2.922-2.921v-7.628c0-1.611 1.311-2.922 2.922-2.922s2.923 1.311 2.923 2.922l-0.001 7.628c0 1.611-1.311 2.921-2.922 2.921zM-123.71 35.493c-1.233 0.001-2.233 1.001-2.234 2.234v7.628c0.002 1.233 1.001 2.233 2.234 2.234h0c1.233-0.001 2.233-1.001 2.234-2.234v-0l0.001-7.628c0-1.232-1.003-2.234-2.236-2.234zM-127.288 42.394c-0 0-0 0-0 0-0.19 0-0.343-0.154-0.343-0.343 0-0 0-0 0-0v0-1.015c0-0.19 0.154-0.344 0.344-0.344s0.344 0.154 0.344 0.344v0 1.015c0 0 0 0 0 0 0 0.19-0.154 0.343-0.343 0.343-0 0-0 0-0 0h0zM-129.461 42.394c-0 0-0 0-0 0-0.19 0-0.343-0.154-0.343-0.343 0-0 0-0 0-0v0-1.015c0-0.19 0.154-0.344 0.344-0.344s0.344 0.154 0.344 0.344v0 1.015c0 0 0 0 0 0 0 0.19-0.154 0.343-0.343 0.343-0 0-0 0-0.001 0h0zM-60.658 36.502c0-0.19-0.154-0.344-0.344-0.344s-0.344 0.154-0.344 0.344v0 3.762h-0.024c-0.033-0.755-0.652-1.36-1.416-1.36h-1.575c-0.763 0-1.382 0.605-1.415 1.36h-12.663c-0 0-0.001 0-0.002 0-0.568 0-1.084 0.22-1.468 0.579l0.001-0.001v-1.618c0-0.19-0.154-0.344-0.344-0.344s-0.344 0.154-0.344 0.344v0l-0.001 6.856c0 0.184 0.144 0.334 0.325 0.344v0.157c0 0.19 0.154 0.344 0.344 0.344s0.344-0.154 0.344-0.344v0-0.157h17.911v0.157c0 0.19 0.154 0.344 0.344 0.344s0.344-0.154 0.344-0.344v0-0.157c0.181-0.009 0.326-0.16 0.326-0.344l-0.001-9.578zM-64.359 39.591h1.575c0.383 0 0.699 0.295 0.731 0.668h-3.037c0.035-0.376 0.348-0.668 0.73-0.668h0zM-78.437 40.951h17.092v1.125h-18.521c0.161-0.65 0.739-1.124 1.428-1.125h0zM-79.906 45.736v-2.973h18.562l0.001 2.973h-18.563zM-31.783 43.648c0-0.19-0.154-0.344-0.344-0.344h-7.561v-3.176c0-0 0-0 0-0 0-0.19-0.154-0.343-0.343-0.343-0 0-0 0-0 0h-3.438c-0 0-0 0-0.001 0-0.19 0-0.343 0.154-0.343 0.343 0 0 0 0 0 0v-0 3.176h-1.575c0.194-0.609-0.392-3.184-0.21-3.672 0.014-0.036 0.022-0.077 0.022-0.121 0-0.19-0.154-0.343-0.343-0.343-0 0-0 0-0 0h-0.463v-1.174h1.834c0 0 0 0 0 0 0.19 0 0.343-0.154 0.343-0.343 0-0.018-0.001-0.036-0.004-0.053l0 0.002-0.649-4.388c-0.025-0.167-0.168-0.293-0.34-0.293-0 0-0 0-0 0h-3.057c-0 0-0 0-0 0-0.172 0-0.314 0.126-0.339 0.291l-0 0.002-0.648 4.388c-0.002 0.015-0.004 0.033-0.004 0.051 0 0.19 0.154 0.343 0.343 0.343 0 0 0 0 0.001 0h1.832v1.174h-0.463c-0.113 0-0.218 0.055-0.282 0.148-0.038 0.055-0.061 0.122-0.061 0.195 0 0.043 0.008 0.085 0.023 0.123l-0.001-0.002c0.182 0.489-0.403 3.063-0.209 3.672h-3.309c-0 0-0 0-0 0-0.19 0-0.343 0.154-0.343 0.343 0 0 0 0 0 0.001v-0 5.671c0 0.183 0.144 0.333 0.324 0.343v0.158c0 0.19 0.154 0.344 0.344 0.344s0.344-0.154 0.344-0.344v0-0.157h17.911v0.157c0 0.19 0.154 0.344 0.344 0.344s0.344-0.154 0.344-0.344v0-0.158c0.182-0.009 0.326-0.159 0.326-0.343 0-0 0-0 0-0v0l-0.001-5.671zM-43.126 40.472h2.75v2.832h-2.75v-2.832zM-48.505 37.307l0.546-3.7h2.464l0.547 3.7h-3.557zM-47.1 39.856h0.746c-0.067 0.545 0.492 3.001 0.216 3.448h-1.178c-0.275-0.447 0.283-2.902 0.216-3.448zM-42.096 48.976h-8.935v-4.984h8.935v4.984zM-41.408 48.976v-4.984h8.938l0.001 4.984h-8.939z"></path>
</symbol>
<symbol id="arrow-right" viewBox="0 0 42 32">
<path fill="#fff" style="fill: var(--color4, #fff)" d="M41.414 17.414c0.362-0.362 0.586-0.862 0.586-1.414s-0.224-1.052-0.586-1.414l-12.728-12.728c-0.364-0.377-0.874-0.611-1.439-0.611-1.105 0-2 0.895-2 2 0 0.565 0.234 1.074 0.61 1.438l0.001 0.001 11.314 11.314-11.314 11.314c-0.347 0.359-0.561 0.849-0.561 1.389 0 1.105 0.895 2 2 2 0.54 0 1.030-0.214 1.39-0.562l-0.001 0.001 12.728-12.728zM0 18h40v-4h-40v4z"></path>
</symbol>
<symbol id="arrow-left" viewBox="0 0 42 32">
<path fill="#fff" style="fill: var(--color4, #fff)" d="M0.586 14.586c-0.362 0.362-0.586 0.862-0.586 1.414s0.224 1.052 0.586 1.414l12.728 12.728c0.359 0.347 0.849 0.561 1.389 0.561 1.105 0 2-0.895 2-2 0-0.54-0.214-1.030-0.562-1.39l0.001 0.001-11.314-11.314 11.314-11.314c0.335-0.357 0.541-0.838 0.541-1.368 0-1.105-0.895-2-2-2-0.53 0-1.012 0.206-1.37 0.543l0.001-0.001-12.728 12.726zM42 14h-40v4h40v-4z"></path>
</symbol>
<symbol id="tel" viewBox="0 0 20 32">
<path fill="#3d4a39" style="fill: var(--color1, #3d4a39)" d="M15.516 1.334h-10.668c-2.208 0.002-3.998 1.792-4 4v21.333c0.002 2.208 1.792 3.998 4 4h10.668c2.208-0.002 3.998-1.792 4-4v-21.333c-0.002-2.208-1.792-3.998-4-4h-0zM12.848 28h-5.332v-1.334h5.332v1.334zM17.183 24h-14v-18.666h13.999v18.666z"></path>
</symbol>
<symbol id="facebook" viewBox="0 0 15 32">
<path fill="#ae7b3c" style="fill: var(--color3, #ae7b3c)" d="M3.89 31.352v-14.711h-3.89v-5.297h3.89v-4.524c0-3.555 2.298-6.82 7.592-6.82 2.144 0 3.729 0.205 3.729 0.205l-0.125 4.946c0 0-1.617-0.016-3.381-0.016-1.909 0-2.215 0.88-2.215 2.34v3.868h5.748l-0.25 5.297h-5.498v14.711h-5.6z"></path>
</symbol>
<symbol id="instagram" viewBox="0 0 32 32">
<path fill="#ae7b3c" style="fill: var(--color3, #ae7b3c)" d="M27.929 11.073c-0.015-1.065-0.219-2.079-0.58-3.014l0.020 0.059c-0.638-1.616-1.893-2.872-3.468-3.496l-0.042-0.015c-0.863-0.334-1.862-0.538-2.905-0.56l-0.009-0c-1.283-0.057-1.689-0.073-4.947-0.073-3.255 0-3.672 0-4.947 0.073-1.052 0.023-2.049 0.226-2.972 0.58l0.060-0.020c-1.617 0.638-2.873 1.894-3.496 3.469l-0.014 0.042c-0.335 0.863-0.538 1.861-0.559 2.905l-0 0.009c-0.057 1.284-0.075 1.691-0.075 4.947s0 3.672 0.075 4.947c0.020 0.997 0.208 1.981 0.559 2.916 0.639 1.616 1.895 2.872 3.47 3.495l0.042 0.015c0.86 0.347 1.856 0.564 2.899 0.6l0.015 0c1.284 0.057 1.691 0.075 4.947 0.075s3.673 0 4.947-0.075c1.052-0.021 2.051-0.224 2.975-0.579l-0.060 0.020c1.616-0.639 2.872-1.894 3.496-3.469l0.015-0.042c0.351-0.933 0.539-1.917 0.559-2.916 0.057-1.283 0.075-1.689 0.075-4.947-0.003-3.256-0.003-3.669-0.077-4.945zM15.992 22.136c-0 0-0.001 0-0.001 0-3.404 0-6.163-2.759-6.163-6.163 0-0 0-0.001 0-0.001v0c0.001-3.403 2.76-6.161 6.163-6.161s6.163 2.759 6.163 6.163c0 3.403-2.758 6.162-6.161 6.163h-0zM22.4 11.017c-0.003 0-0.007 0-0.011 0-0.792 0-1.435-0.642-1.435-1.435 0-0.598 0.366-1.11 0.886-1.326l0.009-0.004c0.162-0.068 0.349-0.108 0.546-0.108 0.793 0 1.436 0.643 1.436 1.436 0 0.792-0.64 1.434-1.431 1.436h-0z"></path>
<path fill="#ae7b3c" style="fill: var(--color3, #ae7b3c)" d="M15.992 19.976c2.211 0 4.004-1.793 4.004-4.004s-1.793-4.004-4.004-4.004v0c-2.211 0-4.004 1.793-4.004 4.004s1.793 4.004 4.004 4.004v0z"></path>
</symbol>
</defs>
</svg>
